<svg width="20" height="20" viewBox="0 0 20 20" fill="none" xmlns="http://www.w3.org/2000/svg">
<path d="M9.2513 18.9582H5.7513C2.49297 18.9582 1.04297 17.5082 1.04297 14.2498V10.7498C1.04297 7.4915 2.49297 6.0415 5.7513 6.0415H9.2513C12.5096 6.0415 13.9596 7.4915 13.9596 10.7498V14.2498C13.9596 17.5082 12.5096 18.9582 9.2513 18.9582ZM5.7513 7.2915C3.16797 7.2915 2.29297 8.1665 2.29297 10.7498V14.2498C2.29297 16.8332 3.16797 17.7082 5.7513 17.7082H9.2513C11.8346 17.7082 12.7096 16.8332 12.7096 14.2498V10.7498C12.7096 8.1665 11.8346 7.2915 9.2513 7.2915H5.7513Z" fill="#0E1330"/>
<path d="M14.2513 13.9582H13.3346C12.993 13.9582 12.7096 13.6748 12.7096 13.3332V10.7498C12.7096 8.1665 11.8346 7.2915 9.2513 7.2915H6.66797C6.3263 7.2915 6.04297 7.00817 6.04297 6.6665V5.74984C6.04297 2.4915 7.49297 1.0415 10.7513 1.0415H14.2513C17.5096 1.0415 18.9596 2.4915 18.9596 5.74984V9.24984C18.9596 12.5082 17.5096 13.9582 14.2513 13.9582ZM13.9596 12.7082H14.2513C16.8346 12.7082 17.7096 11.8332 17.7096 9.24984V5.74984C17.7096 3.1665 16.8346 2.2915 14.2513 2.2915H10.7513C8.16797 2.2915 7.29297 3.1665 7.29297 5.74984V6.0415H9.2513C12.5096 6.0415 13.9596 7.4915 13.9596 10.7498V12.7082Z" fill="#0E1330"/>
</svg>
