<svg width="30" height="30" viewBox="0 0 30 30" fill="none" xmlns="http://www.w3.org/2000/svg">
<path d="M6.92449 24.3999C6.16199 24.3999 5.44949 24.1374 4.93699 23.6499C4.28699 23.0374 3.97449 22.1124 4.08699 21.1124L4.54949 17.0624C4.63699 16.2999 5.0995 15.2874 5.637 14.7374L15.8995 3.87494C18.462 1.16244 21.137 1.08744 23.8495 3.64994C26.562 6.21244 26.637 8.88744 24.0745 11.5999L13.812 22.4624C13.287 23.0249 12.312 23.5499 11.5495 23.6749L7.52449 24.3624C7.31199 24.3749 7.12449 24.3999 6.92449 24.3999ZM19.912 3.63744C18.9495 3.63744 18.112 4.23744 17.262 5.13744L6.99949 16.0124C6.74949 16.2749 6.462 16.8999 6.41199 17.2624L5.9495 21.3124C5.8995 21.7249 5.99949 22.0624 6.22449 22.2749C6.44949 22.4874 6.78699 22.5624 7.1995 22.4999L11.2245 21.8124C11.587 21.7499 12.187 21.4249 12.437 21.1624L22.6995 10.2999C24.2495 8.64994 24.812 7.12494 22.5495 4.99994C21.5495 4.03744 20.687 3.63744 19.912 3.63744Z" fill="#2B3991"/>
<path d="M21.6746 13.6876C21.6496 13.6876 21.6121 13.6876 21.5871 13.6876C17.6871 13.3001 14.5496 10.3376 13.9496 6.46256C13.8746 5.95006 14.2246 5.47506 14.7371 5.38756C15.2496 5.31256 15.7246 5.66256 15.8121 6.17506C16.2871 9.20006 18.7371 11.5251 21.7871 11.8251C22.2996 11.8751 22.6746 12.3376 22.6246 12.8501C22.5621 13.3251 22.1496 13.6876 21.6746 13.6876Z" fill="#2B3991"/>
<path d="M26.25 28.4375H3.75C3.2375 28.4375 2.8125 28.0125 2.8125 27.5C2.8125 26.9875 3.2375 26.5625 3.75 26.5625H26.25C26.7625 26.5625 27.1875 26.9875 27.1875 27.5C27.1875 28.0125 26.7625 28.4375 26.25 28.4375Z" fill="#2B3991"/>
</svg>
