<svg width="27" height="26" viewBox="0 0 27 26" fill="none" xmlns="http://www.w3.org/2000/svg">
<path d="M22.7148 3.87878C20.2113 1.38818 17.1528 0.125 13.625 0.125C10.0643 0.125 6.99724 1.38961 4.50807 3.88021C2.01461 6.37081 0.75 9.44078 0.75 13C0.75 16.5263 2.01318 19.5848 4.50378 22.0898C6.99438 24.6018 10.0629 25.875 13.625 25.875C17.1542 25.875 20.2127 24.6018 22.7176 22.094C25.2282 19.5863 26.5 16.5263 26.5 13C26.5 9.44078 25.2268 6.37081 22.7148 3.87878ZM20.6948 20.0712C19.0683 21.7006 17.21 22.6291 15.0556 22.9109V15.8611H17.9167V13H15.0556V10.9972C15.0556 10.8844 15.0778 10.7727 15.121 10.6684C15.1643 10.5642 15.2276 10.4695 15.3075 10.3898C15.3873 10.3101 15.4821 10.2469 15.5864 10.2038C15.6907 10.1608 15.8025 10.1387 15.9153 10.1389H17.9167V7.27778H15.9182C14.8567 7.27778 13.9712 7.66832 13.2616 8.45369C12.5521 9.23621 12.1944 10.1918 12.1944 11.3263V13H9.33333V15.8611H12.1944V22.9138C10.0171 22.6348 8.1517 21.7049 6.53374 20.0755C4.56672 18.0956 3.61111 15.781 3.61111 13C3.61111 10.1875 4.56529 7.86717 6.53231 5.90444C8.49217 3.94029 10.8125 2.98611 13.625 2.98611C16.4074 2.98611 18.7206 3.94172 20.6991 5.90874C22.6776 7.87146 23.6389 10.1918 23.6389 13C23.6389 15.7767 22.6761 18.0913 20.6948 20.0712Z" fill="#FBCA8E"/>
</svg>
