<svg width="26" height="26" viewBox="0 0 26 26" fill="none" xmlns="http://www.w3.org/2000/svg">
<path d="M14.3056 6.05347C14.3056 6.82169 13.6651 7.44446 12.875 7.44446C12.0849 7.44446 11.4444 6.82169 11.4444 6.05347C11.4444 5.28524 12.0849 4.66248 12.875 4.66248C13.6651 4.66248 14.3056 5.28524 14.3056 6.05347ZM14.3508 0.592883C13.4715 -0.0309611 12.2785 -0.0309611 11.3992 0.592883L0.781899 8.12641C-0.615868 9.11818 0.105604 11.2696 1.83598 11.2696H2.14583V19.3372C0.872038 19.9704 0 21.2589 0 22.7453V24.8318C0 25.4079 0.480366 25.875 1.07292 25.875H24.6771C25.2696 25.875 25.75 25.4079 25.75 24.8318V22.7453C25.75 21.2589 24.8779 19.9704 23.6042 19.3372V11.2696H23.914C25.6444 11.2696 26.3659 9.1182 24.9681 8.12641L14.3508 0.592883ZM12.6641 2.27832C12.7897 2.1892 12.9603 2.1892 13.0859 2.27832L22.8172 9.1832H2.9328L12.6641 2.27832ZM21.4583 11.2696V18.9201H18.5972V11.2696H21.4583ZM16.4514 11.2696V18.9201H13.9479V11.2696H16.4514ZM11.8021 11.2696V18.9201H9.29861V11.2696H11.8021ZM3.93403 21.0065H21.816C22.8036 21.0065 23.6042 21.7851 23.6042 22.7453V23.7885H2.14583V22.7453C2.14583 21.7851 2.94643 21.0065 3.93403 21.0065ZM4.29167 18.9201V11.2696H7.15278V18.9201H4.29167Z" fill="#D4D4D4"/>
</svg>
