<svg width="26" height="26" viewBox="0 0 26 26" fill="none" xmlns="http://www.w3.org/2000/svg">
<path d="M7.4675 0.125H18.2825C22.4025 0.125 25.75 3.4725 25.75 7.5925V18.4075C25.75 20.388 24.9632 22.2874 23.5628 23.6878C22.1624 25.0882 20.263 25.875 18.2825 25.875H7.4675C3.3475 25.875 0 22.5275 0 18.4075V7.5925C0 5.612 0.786752 3.71261 2.18718 2.31218C3.58761 0.911752 5.487 0.125 7.4675 0.125ZM7.21 2.7C5.98072 2.7 4.80179 3.18833 3.93256 4.05756C3.06333 4.92679 2.575 6.10572 2.575 7.335V18.665C2.575 21.2271 4.64787 23.3 7.21 23.3H18.54C19.7693 23.3 20.9482 22.8117 21.8174 21.9424C22.6867 21.0732 23.175 19.8943 23.175 18.665V7.335C23.175 4.77287 21.1021 2.7 18.54 2.7H7.21ZM19.6344 4.63125C20.0612 4.63125 20.4706 4.80081 20.7724 5.10262C21.0742 5.40444 21.2437 5.81379 21.2437 6.24062C21.2437 6.66746 21.0742 7.07681 20.7724 7.37862C20.4706 7.68044 20.0612 7.85 19.6344 7.85C19.2075 7.85 18.7982 7.68044 18.4964 7.37862C18.1946 7.07681 18.025 6.66746 18.025 6.24062C18.025 5.81379 18.1946 5.40444 18.4964 5.10262C18.7982 4.80081 19.2075 4.63125 19.6344 4.63125ZM12.875 6.5625C14.5823 6.5625 16.2197 7.24073 17.427 8.448C18.6343 9.65527 19.3125 11.2927 19.3125 13C19.3125 14.7073 18.6343 16.3447 17.427 17.552C16.2197 18.7593 14.5823 19.4375 12.875 19.4375C11.1677 19.4375 9.53027 18.7593 8.323 17.552C7.11573 16.3447 6.4375 14.7073 6.4375 13C6.4375 11.2927 7.11573 9.65527 8.323 8.448C9.53027 7.24073 11.1677 6.5625 12.875 6.5625ZM12.875 9.1375C11.8506 9.1375 10.8682 9.54444 10.1438 10.2688C9.41944 10.9932 9.0125 11.9756 9.0125 13C9.0125 14.0244 9.41944 15.0068 10.1438 15.7312C10.8682 16.4556 11.8506 16.8625 12.875 16.8625C13.8994 16.8625 14.8818 16.4556 15.6062 15.7312C16.3306 15.0068 16.7375 14.0244 16.7375 13C16.7375 11.9756 16.3306 10.9932 15.6062 10.2688C14.8818 9.54444 13.8994 9.1375 12.875 9.1375Z" fill="#FBCA8E"/>
</svg>
