<svg width="31" height="30" viewBox="0 0 31 30" fill="none" xmlns="http://www.w3.org/2000/svg">
<path d="M19.502 28.4375H12.002C6.48945 28.4375 4.81445 26.7625 4.81445 21.25V8.75C4.81445 3.2375 6.48945 1.5625 12.002 1.5625H19.502C25.0145 1.5625 26.6895 3.2375 26.6895 8.75V21.25C26.6895 26.7625 25.0145 28.4375 19.502 28.4375ZM12.002 3.4375C7.52695 3.4375 6.68945 4.2875 6.68945 8.75V21.25C6.68945 25.7125 7.52695 26.5625 12.002 26.5625H19.502C23.977 26.5625 24.8145 25.7125 24.8145 21.25V8.75C24.8145 4.2875 23.977 3.4375 19.502 3.4375H12.002Z" fill="#D4D4D4"/>
<path d="M18.249 7.8125H13.249C12.7365 7.8125 12.3115 7.3875 12.3115 6.875C12.3115 6.3625 12.7365 5.9375 13.249 5.9375H18.249C18.7615 5.9375 19.1865 6.3625 19.1865 6.875C19.1865 7.3875 18.7615 7.8125 18.249 7.8125Z" fill="#D4D4D4"/>
<path d="M15.7471 24.8252C14.1596 24.8252 12.8721 23.5377 12.8721 21.9502C12.8721 20.3627 14.1596 19.0752 15.7471 19.0752C17.3346 19.0752 18.6221 20.3627 18.6221 21.9502C18.6221 23.5377 17.3346 24.8252 15.7471 24.8252ZM15.7471 20.9377C15.1971 20.9377 14.7471 21.3877 14.7471 21.9377C14.7471 22.4877 15.1971 22.9377 15.7471 22.9377C16.2971 22.9377 16.7471 22.4877 16.7471 21.9377C16.7471 21.3877 16.2971 20.9377 15.7471 20.9377Z" fill="#D4D4D4"/>
</svg>
