<svg width="100" height="99" viewBox="0 0 100 99" fill="none" xmlns="http://www.w3.org/2000/svg">
<g filter="url(#filter0_d_1309_19060)">
<circle cx="50" cy="45.5" r="45.5" fill="#FAFAFA"/>
<circle cx="50" cy="45.5" r="45.045" stroke="#E4E2E2" stroke-width="0.91"/>
</g>
<path d="M57.0017 61.9949H37.2242C36.0542 61.9949 34.9517 61.8825 33.9617 61.6575C33.4442 61.59 32.8142 61.4099 32.1617 61.1624C29.1692 60.0374 25.6367 57.2699 25.6367 50.3849V38.7974C25.6367 31.4399 29.8667 27.21 37.2242 27.21H57.0017C63.2117 27.21 67.2167 30.1799 68.2967 35.5799C68.4992 36.5699 68.5892 37.6274 68.5892 38.7974V50.3849C68.5892 57.7874 64.3817 61.9949 57.0017 61.9949ZM37.2467 30.63C31.7117 30.63 29.0342 33.3074 29.0342 38.8424V50.43C29.0342 54.4575 30.4517 56.9325 33.3542 58.035C33.8042 58.1925 34.2317 58.3049 34.6367 58.3724C35.4917 58.5524 36.3242 58.6424 37.2467 58.6424H57.0242C62.5592 58.6424 65.2367 55.965 65.2367 50.43V38.8424C65.2367 37.8974 65.1692 37.0649 65.0117 36.2999C64.2467 32.4749 61.6367 30.63 57.0242 30.63H37.2467Z" fill="#7C4A0F"/>
<path d="M63.7539 68.7447H43.9764C42.0639 68.7447 40.3539 68.4748 38.8914 67.9123C35.5839 66.6748 33.4239 64.0648 32.6814 60.3298C32.5689 59.7673 32.7489 59.1823 33.1539 58.7998C33.5589 58.3948 34.1439 58.2373 34.7064 58.3723C35.4489 58.5298 36.2814 58.6197 37.2264 58.6197H57.0039C62.5389 58.6197 65.2164 55.9423 65.2164 50.4073V38.8198C65.2164 37.8748 65.1489 37.0423 64.9914 36.2773C64.8789 35.7148 65.0589 35.1523 65.4414 34.7473C65.8464 34.3423 66.4089 34.1622 66.9714 34.2972C72.3714 35.3997 75.3414 39.4048 75.3414 45.5698V57.1573C75.3414 64.5373 71.1339 68.7447 63.7539 68.7447ZM36.8214 61.9947C37.5414 63.2997 38.6214 64.2223 40.1064 64.7623C41.1864 65.1673 42.4914 65.3697 43.9989 65.3697H63.7764C69.3114 65.3697 71.9889 62.6923 71.9889 57.1573V45.5698C71.9889 42.0148 70.8864 39.6523 68.6139 38.4148C68.6139 38.5498 68.6139 38.6848 68.6139 38.8198V50.4073C68.6139 57.7648 64.3839 61.9947 57.0264 61.9947H37.2489C37.0914 61.9947 36.9564 61.9947 36.8214 61.9947Z" fill="#7C4A0F"/>
<path d="M47.1236 52.2526C42.9161 52.2526 39.4961 48.8326 39.4961 44.6251C39.4961 40.4176 42.9161 36.9976 47.1236 36.9976C51.3311 36.9976 54.7512 40.4176 54.7512 44.6251C54.7512 48.8326 51.3311 52.2526 47.1236 52.2526ZM47.1236 40.3726C44.7836 40.3726 42.8711 42.2851 42.8711 44.6251C42.8711 46.9651 44.7836 48.8776 47.1236 48.8776C49.4636 48.8776 51.3762 46.9651 51.3762 44.6251C51.3762 42.2851 49.4636 40.3726 47.1236 40.3726Z" fill="#7C4A0F"/>
<path d="M34.2539 51.2628C33.3314 51.2628 32.5664 50.4978 32.5664 49.5753V39.6753C32.5664 38.7528 33.3314 37.9878 34.2539 37.9878C35.1764 37.9878 35.9414 38.7528 35.9414 39.6753V49.5753C35.9414 50.4978 35.1989 51.2628 34.2539 51.2628Z" fill="#7C4A0F"/>
<path d="M59.9727 51.2628C59.0502 51.2628 58.2852 50.4978 58.2852 49.5753V39.6753C58.2852 38.7528 59.0502 37.9878 59.9727 37.9878C60.8952 37.9878 61.6602 38.7528 61.6602 39.6753V49.5753C61.6602 50.4978 60.9177 51.2628 59.9727 51.2628Z" fill="#7C4A0F"/>
<defs>
<filter id="filter0_d_1309_19060" x="0.86" y="0" width="98.28" height="98.28" filterUnits="userSpaceOnUse" color-interpolation-filters="sRGB">
<feFlood flood-opacity="0" result="BackgroundImageFix"/>
<feColorMatrix in="SourceAlpha" type="matrix" values="0 0 0 0 0 0 0 0 0 0 0 0 0 0 0 0 0 0 127 0" result="hardAlpha"/>
<feOffset dy="3.64"/>
<feGaussianBlur stdDeviation="1.82"/>
<feComposite in2="hardAlpha" operator="out"/>
<feColorMatrix type="matrix" values="0 0 0 0 0 0 0 0 0 0 0 0 0 0 0 0 0 0 0.25 0"/>
<feBlend mode="normal" in2="BackgroundImageFix" result="effect1_dropShadow_1309_19060"/>
<feBlend mode="normal" in="SourceGraphic" in2="effect1_dropShadow_1309_19060" result="shape"/>
</filter>
</defs>
</svg>
