<svg width="108" height="108" viewBox="0 0 108 108" fill="none" xmlns="http://www.w3.org/2000/svg">
<g filter="url(#filter0_d_1309_19040)">
<circle cx="54" cy="50" r="50" fill="#FAFAFA"/>
<circle cx="54" cy="50" r="49.5" stroke="#E4E2E2"/>
</g>
<path d="M67.5 72.5C65.625 72.5 64.0312 71.8438 62.7188 70.5312C61.4062 69.2188 60.75 67.625 60.75 65.75C60.75 65.4875 60.7687 65.2152 60.8062 64.9332C60.8438 64.6512 60.9 64.3985 60.975 64.175L45.1125 54.95C44.475 55.5125 43.7625 55.9535 42.975 56.273C42.1875 56.5925 41.3625 56.7515 40.5 56.75C38.625 56.75 37.0312 56.0938 35.7188 54.7812C34.4063 53.4688 33.75 51.875 33.75 50C33.75 48.125 34.4063 46.5312 35.7188 45.2188C37.0312 43.9062 38.625 43.25 40.5 43.25C41.3625 43.25 42.1875 43.4098 42.975 43.7292C43.7625 44.0487 44.475 44.489 45.1125 45.05L60.975 35.825C60.9 35.6 60.8438 35.3472 60.8062 35.0667C60.7687 34.7862 60.75 34.514 60.75 34.25C60.75 32.375 61.4062 30.7812 62.7188 29.4688C64.0312 28.1563 65.625 27.5 67.5 27.5C69.375 27.5 70.9688 28.1563 72.2812 29.4688C73.5938 30.7812 74.25 32.375 74.25 34.25C74.25 36.125 73.5938 37.7188 72.2812 39.0312C70.9688 40.3438 69.375 41 67.5 41C66.6375 41 65.8125 40.841 65.025 40.523C64.2375 40.205 63.525 39.764 62.8875 39.2L47.025 48.425C47.1 48.65 47.1563 48.9035 47.1938 49.1855C47.2313 49.4675 47.25 49.739 47.25 50C47.25 50.2625 47.2313 50.5347 47.1938 50.8167C47.1563 51.0987 47.1 51.3515 47.025 51.575L62.8875 60.8C63.525 60.2375 64.2375 59.7972 65.025 59.4792C65.8125 59.1612 66.6375 59.0015 67.5 59C69.375 59 70.9688 59.6562 72.2812 60.9688C73.5938 62.2812 74.25 63.875 74.25 65.75C74.25 67.625 73.5938 69.2188 72.2812 70.5312C70.9688 71.8438 69.375 72.5 67.5 72.5ZM67.5 36.5C68.1375 36.5 68.6722 36.284 69.1042 35.852C69.5362 35.42 69.7515 34.886 69.75 34.25C69.75 33.6125 69.534 33.0778 69.102 32.6458C68.67 32.2138 68.136 31.9985 67.5 32C66.8625 32 66.3278 32.216 65.8958 32.648C65.4638 33.08 65.2485 33.614 65.25 34.25C65.25 34.8875 65.466 35.4222 65.898 35.8542C66.33 36.2862 66.864 36.5015 67.5 36.5ZM40.5 52.25C41.1375 52.25 41.6722 52.034 42.1042 51.602C42.5362 51.17 42.7515 50.636 42.75 50C42.75 49.3625 42.534 48.8277 42.102 48.3958C41.67 47.9637 41.136 47.7485 40.5 47.75C39.8625 47.75 39.3278 47.966 38.8958 48.398C38.4638 48.83 38.2485 49.364 38.25 50C38.25 50.6375 38.466 51.1723 38.898 51.6042C39.33 52.0363 39.864 52.2515 40.5 52.25ZM67.5 68C68.1375 68 68.6722 67.784 69.1042 67.352C69.5362 66.92 69.7515 66.386 69.75 65.75C69.75 65.1125 69.534 64.5778 69.102 64.1458C68.67 63.7138 68.136 63.4985 67.5 63.5C66.8625 63.5 66.3278 63.716 65.8958 64.148C65.4638 64.58 65.2485 65.114 65.25 65.75C65.25 66.3875 65.466 66.9222 65.898 67.3542C66.33 67.7862 66.864 68.0015 67.5 68Z" fill="#7C4A0F"/>
<defs>
<filter id="filter0_d_1309_19040" x="0" y="0" width="108" height="108" filterUnits="userSpaceOnUse" color-interpolation-filters="sRGB">
<feFlood flood-opacity="0" result="BackgroundImageFix"/>
<feColorMatrix in="SourceAlpha" type="matrix" values="0 0 0 0 0 0 0 0 0 0 0 0 0 0 0 0 0 0 127 0" result="hardAlpha"/>
<feOffset dy="4"/>
<feGaussianBlur stdDeviation="2"/>
<feComposite in2="hardAlpha" operator="out"/>
<feColorMatrix type="matrix" values="0 0 0 0 0 0 0 0 0 0 0 0 0 0 0 0 0 0 0.25 0"/>
<feBlend mode="normal" in2="BackgroundImageFix" result="effect1_dropShadow_1309_19040"/>
<feBlend mode="normal" in="SourceGraphic" in2="effect1_dropShadow_1309_19040" result="shape"/>
</filter>
</defs>
</svg>
