<svg width="64" height="64" viewBox="0 0 64 64" fill="none" xmlns="http://www.w3.org/2000/svg">
<path d="M48.5063 47.3335H20.1063C17.4663 47.3335 14.933 46.2135 13.1463 44.2668C11.3597 42.3202 10.453 39.7068 10.6663 37.0668L12.8797 10.5068C12.9597 9.68017 12.6663 8.88018 12.1063 8.26685C11.5463 7.65351 10.773 7.3335 9.94633 7.3335H5.33301C4.23967 7.3335 3.33301 6.42683 3.33301 5.3335C3.33301 4.24016 4.23967 3.3335 5.33301 3.3335H9.97302C11.9197 3.3335 13.7597 4.16015 15.0663 5.57349C15.7863 6.37349 16.3197 7.30684 16.613 8.34684H49.9197C52.613 8.34684 55.093 9.4135 56.9063 11.3335C58.693 13.2802 59.5997 15.8135 59.3864 18.5068L57.9463 38.5068C57.653 43.3868 53.3863 47.3335 48.5063 47.3335ZM16.7463 12.3202L14.6663 37.3868C14.533 38.9335 15.0397 40.4001 16.0797 41.5468C17.1197 42.6935 18.5597 43.3068 20.1063 43.3068H48.5063C51.2797 43.3068 53.7863 40.9602 53.9997 38.1869L55.4397 18.1868C55.5463 16.6135 55.0397 15.1202 53.9997 14.0269C52.9597 12.9069 51.5197 12.2935 49.9463 12.2935H16.7463V12.3202Z" fill="#243079"/>
<path d="M43.3333 60.6667C40.4 60.6667 38 58.2667 38 55.3333C38 52.4 40.4 50 43.3333 50C46.2667 50 48.6667 52.4 48.6667 55.3333C48.6667 58.2667 46.2667 60.6667 43.3333 60.6667ZM43.3333 54C42.5867 54 42 54.5867 42 55.3333C42 56.08 42.5867 56.6667 43.3333 56.6667C44.08 56.6667 44.6667 56.08 44.6667 55.3333C44.6667 54.5867 44.08 54 43.3333 54Z" fill="#243079"/>
<path d="M22.0003 60.6667C19.067 60.6667 16.667 58.2667 16.667 55.3333C16.667 52.4 19.067 50 22.0003 50C24.9337 50 27.3337 52.4 27.3337 55.3333C27.3337 58.2667 24.9337 60.6667 22.0003 60.6667ZM22.0003 54C21.2537 54 20.667 54.5867 20.667 55.3333C20.667 56.08 21.2537 56.6667 22.0003 56.6667C22.747 56.6667 23.3337 56.08 23.3337 55.3333C23.3337 54.5867 22.747 54 22.0003 54Z" fill="#243079"/>
<path d="M56 23.3335H24C22.9067 23.3335 22 22.4268 22 21.3335C22 20.2402 22.9067 19.3335 24 19.3335H56C57.0933 19.3335 58 20.2402 58 21.3335C58 22.4268 57.0933 23.3335 56 23.3335Z" fill="#243079"/>
</svg>
