<svg width="203" height="128" viewBox="0 0 203 128" fill="none" xmlns="http://www.w3.org/2000/svg">
<g filter="url(#filter0_d_1166_12909)">
<rect width="195" height="120" transform="translate(4)" fill="#0A272E" fill-opacity="0.84"/>
<path d="M101.71 31.6773C101.675 31.6773 101.622 31.6773 101.587 31.6773C101.535 31.6773 101.465 31.6773 101.412 31.6773C97.4398 31.5548 94.4648 28.4573 94.4648 24.6423C94.4648 20.7573 97.6323 17.5898 101.517 17.5898C105.402 17.5898 108.57 20.7573 108.57 24.6423C108.552 28.4748 105.56 31.5548 101.762 31.6773C101.727 31.6773 101.727 31.6773 101.71 31.6773ZM101.5 20.1973C99.0498 20.1973 97.0723 22.1923 97.0723 24.6248C97.0723 27.0223 98.9448 28.9648 101.325 29.0523C101.377 29.0348 101.552 29.0348 101.727 29.0523C104.072 28.9298 105.91 27.0048 105.927 24.6248C105.927 22.1923 103.95 20.1973 101.5 20.1973Z" fill="#FDEAD2"/>
<path d="M101.499 47.8126C96.792 47.8126 92.2945 46.0626 88.812 42.8776C88.497 42.5976 88.357 42.1776 88.392 41.7751C88.6195 39.6926 89.9145 37.7501 92.067 36.3151C97.282 32.8501 105.734 32.8501 110.932 36.3151C113.084 37.7676 114.379 39.6926 114.607 41.7751C114.659 42.1951 114.502 42.5976 114.187 42.8776C110.704 46.0626 106.207 47.8126 101.499 47.8126ZM91.1395 41.4251C94.0445 43.8576 97.702 45.1876 101.499 45.1876C105.297 45.1876 108.954 43.8576 111.859 41.4251C111.544 40.3576 110.704 39.3251 109.462 38.4851C105.157 35.6151 97.8595 35.6151 93.5195 38.4851C92.277 39.3251 91.4545 40.3576 91.1395 41.4251Z" fill="#FDEAD2"/>
<path d="M101.5 47.8125C91.1225 47.8125 82.6875 39.3775 82.6875 29C82.6875 18.6225 91.1225 10.1875 101.5 10.1875C111.878 10.1875 120.312 18.6225 120.312 29C120.312 39.3775 111.878 47.8125 101.5 47.8125ZM101.5 12.8125C92.575 12.8125 85.3125 20.075 85.3125 29C85.3125 37.925 92.575 45.1875 101.5 45.1875C110.425 45.1875 117.688 37.925 117.688 29C117.688 20.075 110.425 12.8125 101.5 12.8125Z" fill="#FDEAD2"/>
<path d="M55.2955 74.188C55.3968 74.188 55.4855 74.2292 55.5615 74.3115L56.293 75.1C55.7357 75.746 55.058 76.2495 54.26 76.6105C53.4683 76.9715 52.5088 77.152 51.3815 77.152C50.4062 77.152 49.5195 76.9842 48.7215 76.6485C47.9235 76.3065 47.2427 75.8315 46.679 75.2235C46.1153 74.6092 45.6783 73.8745 45.368 73.0195C45.0577 72.1645 44.9025 71.224 44.9025 70.198C44.9025 69.172 45.064 68.2315 45.387 67.3765C45.71 66.5215 46.1628 65.7868 46.7455 65.1725C47.3345 64.5582 48.0375 64.0832 48.8545 63.7475C49.6715 63.4055 50.574 63.2345 51.562 63.2345C52.531 63.2345 53.386 63.3897 54.127 63.7C54.868 64.0103 55.5203 64.4315 56.084 64.9635L55.476 65.809C55.438 65.8723 55.3873 65.9262 55.324 65.9705C55.267 66.0085 55.1878 66.0275 55.0865 66.0275C54.9725 66.0275 54.8332 65.9673 54.6685 65.847C54.5038 65.7203 54.2885 65.581 54.0225 65.429C53.7565 65.277 53.424 65.1408 53.025 65.0205C52.626 64.8938 52.1352 64.8305 51.5525 64.8305C50.8495 64.8305 50.2067 64.954 49.624 65.201C49.0413 65.4417 48.5378 65.7932 48.1135 66.2555C47.6955 66.7178 47.3693 67.2815 47.135 67.9465C46.9007 68.6115 46.7835 69.362 46.7835 70.198C46.7835 71.0467 46.9038 71.8035 47.1445 72.4685C47.3915 73.1335 47.724 73.6972 48.142 74.1595C48.5663 74.6155 49.0635 74.9638 49.6335 75.2045C50.2098 75.4452 50.8305 75.5655 51.4955 75.5655C51.9008 75.5655 52.265 75.5433 52.588 75.499C52.9173 75.4483 53.2182 75.3723 53.4905 75.271C53.7692 75.1697 54.0257 75.043 54.26 74.891C54.5007 74.7327 54.7382 74.5458 54.9725 74.3305C55.0802 74.2355 55.1878 74.188 55.2955 74.188ZM59.5807 69.305C59.8847 68.6463 60.2584 68.1333 60.7017 67.766C61.1451 67.3923 61.6866 67.2055 62.3262 67.2055C62.5289 67.2055 62.7221 67.2277 62.9057 67.272C63.0957 67.3163 63.2636 67.386 63.4092 67.481L63.2857 68.7445C63.2477 68.9028 63.1527 68.982 63.0007 68.982C62.9121 68.982 62.7822 68.963 62.6112 68.925C62.4402 68.887 62.2471 68.868 62.0317 68.868C61.7277 68.868 61.4554 68.9123 61.2147 69.001C60.9804 69.0897 60.7682 69.2227 60.5782 69.4C60.3946 69.571 60.2267 69.7863 60.0747 70.046C59.9291 70.2993 59.7961 70.5907 59.6757 70.92V77H57.9752V67.3765H58.9442C59.1279 67.3765 59.2546 67.4113 59.3242 67.481C59.3939 67.5507 59.4414 67.671 59.4667 67.842L59.5807 69.305ZM70.9475 71.1385C70.9475 70.7458 70.8905 70.388 70.7765 70.065C70.6688 69.7357 70.5073 69.4538 70.292 69.2195C70.083 68.9788 69.8265 68.7952 69.5225 68.6685C69.2185 68.5355 68.8733 68.469 68.487 68.469C67.6763 68.469 67.0335 68.7065 66.5585 69.1815C66.0898 69.6502 65.7985 70.3025 65.6845 71.1385H70.9475ZM72.3155 75.651C72.1065 75.9043 71.8563 76.126 71.565 76.316C71.2737 76.4997 70.9602 76.6517 70.6245 76.772C70.2952 76.8923 69.9532 76.981 69.5985 77.038C69.2438 77.1013 68.8923 77.133 68.544 77.133C67.879 77.133 67.2647 77.0222 66.701 76.8005C66.1437 76.5725 65.6592 76.2432 65.2475 75.8125C64.8422 75.3755 64.5255 74.8372 64.2975 74.1975C64.0695 73.5578 63.9555 72.8232 63.9555 71.9935C63.9555 71.3222 64.0568 70.6952 64.2595 70.1125C64.4685 69.5298 64.7662 69.0263 65.1525 68.602C65.5388 68.1713 66.0107 67.8357 66.568 67.595C67.1253 67.348 67.7523 67.2245 68.449 67.2245C69.0253 67.2245 69.5573 67.3227 70.045 67.519C70.539 67.709 70.9633 67.9877 71.318 68.355C71.679 68.716 71.9608 69.1657 72.1635 69.704C72.3662 70.236 72.4675 70.844 72.4675 71.528C72.4675 71.794 72.439 71.9713 72.382 72.06C72.325 72.1487 72.2173 72.193 72.059 72.193H65.6275C65.6465 72.801 65.7288 73.3298 65.8745 73.7795C66.0265 74.2292 66.2355 74.606 66.5015 74.91C66.7675 75.2077 67.0842 75.4325 67.4515 75.5845C67.8188 75.7302 68.2305 75.803 68.6865 75.803C69.1108 75.803 69.475 75.7555 69.779 75.6605C70.0893 75.5592 70.3553 75.4515 70.577 75.3375C70.7987 75.2235 70.9823 75.119 71.128 75.024C71.28 74.9227 71.4098 74.872 71.5175 74.872C71.6568 74.872 71.7645 74.9258 71.8405 75.0335L72.3155 75.651ZM80.8146 69.666C80.4979 69.2417 80.1559 68.9472 79.7886 68.7825C79.4212 68.6115 79.0096 68.526 78.5536 68.526C77.6606 68.526 76.9734 68.8458 76.4921 69.4855C76.0107 70.1252 75.7701 71.0372 75.7701 72.2215C75.7701 72.8485 75.8239 73.3868 75.9316 73.8365C76.0392 74.2798 76.1976 74.6472 76.4066 74.9385C76.6156 75.2235 76.8721 75.4325 77.1761 75.5655C77.4801 75.6985 77.8252 75.765 78.2116 75.765C78.7689 75.765 79.2534 75.6383 79.6651 75.385C80.0831 75.1317 80.4662 74.7738 80.8146 74.3115V69.666ZM82.5056 63.0065V77H81.4986C81.2579 77 81.1059 76.8828 81.0426 76.6485L80.8906 75.48C80.4789 75.974 80.0102 76.373 79.4846 76.677C78.9589 76.981 78.3509 77.133 77.6606 77.133C77.1096 77.133 76.6092 77.0285 76.1596 76.8195C75.7099 76.6042 75.3267 76.2907 75.0101 75.879C74.6934 75.4673 74.4496 74.9543 74.2786 74.34C74.1076 73.7257 74.0221 73.0195 74.0221 72.2215C74.0221 71.5122 74.1171 70.8535 74.3071 70.2455C74.4971 69.6312 74.7694 69.0992 75.1241 68.6495C75.4787 68.1998 75.9126 67.8483 76.4256 67.595C76.9449 67.3353 77.5276 67.2055 78.1736 67.2055C78.7626 67.2055 79.2661 67.3068 79.6841 67.5095C80.1084 67.7058 80.4852 67.9813 80.8146 68.336V63.0065H82.5056ZM86.9624 67.3765V77H85.2714V67.3765H86.9624ZM87.3234 64.3555C87.3234 64.5202 87.2886 64.6753 87.2189 64.821C87.1556 64.9603 87.0669 65.087 86.9529 65.201C86.8452 65.3087 86.7154 65.3942 86.5634 65.4575C86.4177 65.5208 86.2626 65.5525 86.0979 65.5525C85.9332 65.5525 85.7781 65.5208 85.6324 65.4575C85.4931 65.3942 85.3696 65.3087 85.2619 65.201C85.1542 65.087 85.0687 64.9603 85.0054 64.821C84.9421 64.6753 84.9104 64.5202 84.9104 64.3555C84.9104 64.1908 84.9421 64.0357 85.0054 63.89C85.0687 63.738 85.1542 63.6082 85.2619 63.5005C85.3696 63.3865 85.4931 63.2978 85.6324 63.2345C85.7781 63.1712 85.9332 63.1395 86.0979 63.1395C86.2626 63.1395 86.4177 63.1712 86.5634 63.2345C86.7154 63.2978 86.8452 63.3865 86.9529 63.5005C87.0669 63.6082 87.1556 63.738 87.2189 63.89C87.2886 64.0357 87.3234 64.1908 87.3234 64.3555ZM92.6954 77.152C91.9354 77.152 91.3495 76.9398 90.9379 76.5155C90.5325 76.0912 90.3299 75.48 90.3299 74.682V68.792H89.1709C89.0695 68.792 88.984 68.7635 88.9144 68.7065C88.8447 68.6432 88.8099 68.5482 88.8099 68.4215V67.747L90.3869 67.5475L90.7764 64.574C90.7954 64.479 90.8365 64.403 90.8999 64.346C90.9695 64.2827 91.0582 64.251 91.1659 64.251H92.0209V67.5665H94.8044V68.792H92.0209V74.568C92.0209 74.9733 92.119 75.2742 92.3154 75.4705C92.5117 75.6668 92.765 75.765 93.0754 75.765C93.2527 75.765 93.4047 75.7428 93.5314 75.6985C93.6644 75.6478 93.7784 75.594 93.8734 75.537C93.9684 75.48 94.0475 75.4293 94.1109 75.385C94.1805 75.3343 94.2407 75.309 94.2914 75.309C94.38 75.309 94.4592 75.3628 94.5289 75.4705L95.0229 76.278C94.7315 76.5503 94.38 76.7657 93.9684 76.924C93.5567 77.076 93.1324 77.152 92.6954 77.152ZM110.209 75.499L110.199 77H101.811V63.3865H110.199V64.8875H103.654V69.4095H108.955V70.8535H103.654V75.499H110.209ZM117.482 72.668C116.703 72.6933 116.038 72.7567 115.487 72.858C114.942 72.953 114.496 73.0797 114.147 73.238C113.805 73.3963 113.555 73.5832 113.397 73.7985C113.245 74.0138 113.169 74.2545 113.169 74.5205C113.169 74.7738 113.21 74.9923 113.292 75.176C113.375 75.3597 113.485 75.5117 113.625 75.632C113.77 75.746 113.938 75.8315 114.128 75.8885C114.325 75.9392 114.534 75.9645 114.755 75.9645C115.053 75.9645 115.325 75.936 115.572 75.879C115.819 75.8157 116.05 75.727 116.266 75.613C116.487 75.499 116.696 75.3628 116.893 75.2045C117.095 75.0462 117.292 74.8657 117.482 74.663V72.668ZM112.019 68.735C112.551 68.222 113.124 67.8388 113.739 67.5855C114.353 67.3322 115.034 67.2055 115.781 67.2055C116.32 67.2055 116.798 67.2942 117.216 67.4715C117.634 67.6488 117.985 67.8958 118.27 68.2125C118.555 68.5292 118.771 68.9123 118.916 69.362C119.062 69.8117 119.135 70.3057 119.135 70.844V77H118.384C118.22 77 118.093 76.9747 118.004 76.924C117.916 76.867 117.846 76.7593 117.795 76.601L117.605 75.689C117.352 75.9233 117.105 76.1323 116.864 76.316C116.624 76.4933 116.37 76.6453 116.104 76.772C115.838 76.8923 115.553 76.9842 115.249 77.0475C114.952 77.1172 114.619 77.152 114.252 77.152C113.878 77.152 113.527 77.1013 113.197 77C112.868 76.8923 112.58 76.734 112.333 76.525C112.092 76.316 111.899 76.0532 111.753 75.7365C111.614 75.4135 111.544 75.0335 111.544 74.5965C111.544 74.2165 111.649 73.8523 111.858 73.504C112.067 73.1493 112.406 72.8358 112.874 72.5635C113.343 72.2912 113.954 72.0695 114.708 71.8985C115.461 71.7212 116.386 71.6198 117.482 71.5945V70.844C117.482 70.0967 117.32 69.533 116.997 69.153C116.674 68.7667 116.202 68.5735 115.582 68.5735C115.164 68.5735 114.812 68.6273 114.527 68.735C114.249 68.8363 114.005 68.9535 113.796 69.0865C113.593 69.2132 113.416 69.3303 113.264 69.438C113.118 69.5393 112.972 69.59 112.827 69.59C112.713 69.59 112.615 69.5615 112.532 69.5045C112.45 69.4412 112.38 69.3652 112.323 69.2765L112.019 68.735ZM123.316 69.305C123.62 68.6463 123.994 68.1333 124.437 67.766C124.88 67.3923 125.422 67.2055 126.062 67.2055C126.264 67.2055 126.457 67.2277 126.641 67.272C126.831 67.3163 126.999 67.386 127.145 67.481L127.021 68.7445C126.983 68.9028 126.888 68.982 126.736 68.982C126.647 68.982 126.518 68.963 126.347 68.925C126.176 68.887 125.982 68.868 125.767 68.868C125.463 68.868 125.191 68.9123 124.95 69.001C124.716 69.0897 124.504 69.2227 124.314 69.4C124.13 69.571 123.962 69.7863 123.81 70.046C123.664 70.2993 123.531 70.5907 123.411 70.92V77H121.711V67.3765H122.68C122.863 67.3765 122.99 67.4113 123.06 67.481C123.129 67.5507 123.177 67.671 123.202 67.842L123.316 69.305ZM130.227 68.773C130.436 68.5387 130.658 68.3265 130.892 68.1365C131.127 67.9465 131.374 67.785 131.633 67.652C131.899 67.5127 132.178 67.4082 132.469 67.3385C132.767 67.2625 133.087 67.2245 133.429 67.2245C133.955 67.2245 134.417 67.3132 134.816 67.4905C135.221 67.6615 135.557 67.9085 135.823 68.2315C136.095 68.5482 136.301 68.9313 136.44 69.381C136.58 69.8307 136.649 70.3278 136.649 70.8725V77H134.949V70.8725C134.949 70.1442 134.781 69.5805 134.445 69.1815C134.116 68.7762 133.613 68.5735 132.935 68.5735C132.435 68.5735 131.966 68.6938 131.529 68.9345C131.098 69.1752 130.699 69.5013 130.332 69.913V77H128.631V67.3765H129.648C129.889 67.3765 130.037 67.4937 130.094 67.728L130.227 68.773ZM145.667 71.1385C145.667 70.7458 145.61 70.388 145.496 70.065C145.389 69.7357 145.227 69.4538 145.012 69.2195C144.803 68.9788 144.546 68.7952 144.242 68.6685C143.938 68.5355 143.593 68.469 143.207 68.469C142.396 68.469 141.753 68.7065 141.278 69.1815C140.81 69.6502 140.518 70.3025 140.404 71.1385H145.667ZM147.035 75.651C146.826 75.9043 146.576 76.126 146.285 76.316C145.993 76.4997 145.68 76.6517 145.344 76.772C145.015 76.8923 144.673 76.981 144.318 77.038C143.964 77.1013 143.612 77.133 143.264 77.133C142.599 77.133 141.984 77.0222 141.421 76.8005C140.863 76.5725 140.379 76.2432 139.967 75.8125C139.562 75.3755 139.245 74.8372 139.017 74.1975C138.789 73.5578 138.675 72.8232 138.675 71.9935C138.675 71.3222 138.777 70.6952 138.979 70.1125C139.188 69.5298 139.486 69.0263 139.872 68.602C140.259 68.1713 140.73 67.8357 141.288 67.595C141.845 67.348 142.472 67.2245 143.169 67.2245C143.745 67.2245 144.277 67.3227 144.765 67.519C145.259 67.709 145.683 67.9877 146.038 68.355C146.399 68.716 146.681 69.1657 146.883 69.704C147.086 70.236 147.187 70.844 147.187 71.528C147.187 71.794 147.159 71.9713 147.102 72.06C147.045 72.1487 146.937 72.193 146.779 72.193H140.347C140.366 72.801 140.449 73.3298 140.594 73.7795C140.746 74.2292 140.955 74.606 141.221 74.91C141.487 75.2077 141.804 75.4325 142.171 75.5845C142.539 75.7302 142.95 75.803 143.406 75.803C143.831 75.803 144.195 75.7555 144.499 75.6605C144.809 75.5592 145.075 75.4515 145.297 75.3375C145.518 75.2235 145.702 75.119 145.848 75.024C146 74.9227 146.13 74.872 146.237 74.872C146.377 74.872 146.484 74.9258 146.56 75.0335L147.035 75.651ZM155.534 69.666C155.218 69.2417 154.876 68.9472 154.508 68.7825C154.141 68.6115 153.729 68.526 153.273 68.526C152.38 68.526 151.693 68.8458 151.212 69.4855C150.73 70.1252 150.49 71.0372 150.49 72.2215C150.49 72.8485 150.544 73.3868 150.651 73.8365C150.759 74.2798 150.917 74.6472 151.126 74.9385C151.335 75.2235 151.592 75.4325 151.896 75.5655C152.2 75.6985 152.545 75.765 152.931 75.765C153.489 75.765 153.973 75.6383 154.385 75.385C154.803 75.1317 155.186 74.7738 155.534 74.3115V69.666ZM157.225 63.0065V77H156.218C155.978 77 155.826 76.8828 155.762 76.6485L155.61 75.48C155.199 75.974 154.73 76.373 154.204 76.677C153.679 76.981 153.071 77.133 152.38 77.133C151.829 77.133 151.329 77.0285 150.879 76.8195C150.43 76.6042 150.046 76.2907 149.73 75.879C149.413 75.4673 149.169 74.9543 148.998 74.34C148.827 73.7257 148.742 73.0195 148.742 72.2215C148.742 71.5122 148.837 70.8535 149.027 70.2455C149.217 69.6312 149.489 69.0992 149.844 68.6495C150.198 68.1998 150.632 67.8483 151.145 67.595C151.665 67.3353 152.247 67.2055 152.893 67.2055C153.482 67.2055 153.986 67.3068 154.404 67.5095C154.828 67.7058 155.205 67.9813 155.534 68.336V63.0065H157.225Z" fill="white"/>
<path d="M68.268 94.3865V108H67.3465C67.2008 108 67.0773 107.975 66.976 107.924C66.881 107.873 66.786 107.788 66.691 107.667L58.8155 97.4075C58.8282 97.5658 58.8377 97.721 58.844 97.873C58.8503 98.025 58.8535 98.1675 58.8535 98.3005V108H57.2385V94.3865H58.1885C58.2708 94.3865 58.3405 94.3928 58.3975 94.4055C58.4545 94.4118 58.5052 94.4277 58.5495 94.453C58.5938 94.472 58.6382 94.5037 58.6825 94.548C58.7268 94.586 58.7743 94.6367 58.825 94.7L66.7005 104.95C66.6878 104.786 66.6752 104.627 66.6625 104.475C66.6562 104.317 66.653 104.168 66.653 104.029V94.3865H68.268ZM82.8063 101.454V106.679C82.1223 107.173 81.3908 107.544 80.6118 107.791C79.8391 108.032 78.9904 108.152 78.0658 108.152C76.9701 108.152 75.9821 107.984 75.1018 107.648C74.2214 107.306 73.4678 106.831 72.8408 106.223C72.2201 105.609 71.7419 104.874 71.4063 104.019C71.0706 103.164 70.9028 102.224 70.9028 101.198C70.9028 100.159 71.0643 99.2125 71.3873 98.3575C71.7166 97.5025 72.1821 96.771 72.7838 96.163C73.3854 95.5487 74.1169 95.0737 74.9783 94.738C75.8396 94.4023 76.8023 94.2345 77.8663 94.2345C78.4046 94.2345 78.9049 94.2757 79.3673 94.358C79.8296 94.434 80.2571 94.548 80.6498 94.7C81.0424 94.8457 81.4066 95.0262 81.7423 95.2415C82.0779 95.4505 82.3914 95.688 82.6828 95.954L82.1603 96.79C82.0779 96.9167 81.9703 96.999 81.8373 97.037C81.7106 97.0687 81.5681 97.037 81.4098 96.942C81.2578 96.8533 81.0836 96.7457 80.8873 96.619C80.6909 96.4923 80.4503 96.372 80.1653 96.258C79.8866 96.1377 79.5541 96.0363 79.1678 95.954C78.7878 95.8717 78.3349 95.8305 77.8093 95.8305C77.0429 95.8305 76.3494 95.9572 75.7288 96.2105C75.1081 96.4575 74.5793 96.8153 74.1423 97.284C73.7053 97.7463 73.3696 98.31 73.1353 98.975C72.9009 99.6337 72.7838 100.375 72.7838 101.198C72.7838 102.053 72.9041 102.819 73.1448 103.497C73.3918 104.168 73.7401 104.741 74.1898 105.216C74.6458 105.685 75.1968 106.043 75.8428 106.29C76.4888 106.537 77.2139 106.66 78.0183 106.66C78.6516 106.66 79.2121 106.591 79.6998 106.451C80.1938 106.306 80.6751 106.106 81.1438 105.853V102.86H79.0253C78.9049 102.86 78.8068 102.826 78.7308 102.756C78.6611 102.686 78.6263 102.601 78.6263 102.499V101.454H82.8063ZM96.6567 94.3865V108H95.7352C95.5895 108 95.466 107.975 95.3647 107.924C95.2697 107.873 95.1747 107.788 95.0797 107.667L87.2042 97.4075C87.2168 97.5658 87.2263 97.721 87.2327 97.873C87.239 98.025 87.2422 98.1675 87.2422 98.3005V108H85.6272V94.3865H86.5772C86.6595 94.3865 86.7292 94.3928 86.7862 94.4055C86.8432 94.4118 86.8938 94.4277 86.9382 94.453C86.9825 94.472 87.0268 94.5037 87.0712 94.548C87.1155 94.586 87.163 94.6367 87.2137 94.7L95.0892 104.95C95.0765 104.786 95.0638 104.627 95.0512 104.475C95.0448 104.317 95.0417 104.168 95.0417 104.029V94.3865H96.6567ZM112.636 106.394C112.82 106.394 112.966 106.448 113.073 106.556C113.181 106.664 113.235 106.803 113.235 106.974V108H104.153V107.42C104.153 107.3 104.178 107.177 104.229 107.05C104.279 106.923 104.359 106.806 104.466 106.698L108.827 102.319C109.188 101.952 109.517 101.6 109.815 101.264C110.112 100.922 110.366 100.58 110.575 100.238C110.784 99.8965 110.945 99.5513 111.059 99.203C111.173 98.8483 111.23 98.4715 111.23 98.0725C111.23 97.6735 111.167 97.3252 111.04 97.0275C110.914 96.7235 110.739 96.4733 110.518 96.277C110.302 96.0807 110.046 95.935 109.748 95.84C109.451 95.7387 109.131 95.688 108.789 95.688C108.44 95.688 108.121 95.7387 107.829 95.84C107.538 95.9413 107.278 96.0838 107.05 96.2675C106.829 96.4448 106.642 96.657 106.49 96.904C106.338 97.151 106.23 97.4233 106.167 97.721C106.091 97.9427 105.986 98.0915 105.853 98.1675C105.727 98.2372 105.546 98.2562 105.312 98.2245L104.428 98.0725C104.517 97.4518 104.688 96.904 104.941 96.429C105.201 95.9477 105.524 95.5455 105.91 95.2225C106.303 94.8995 106.749 94.6557 107.25 94.491C107.75 94.32 108.292 94.2345 108.874 94.2345C109.451 94.2345 109.989 94.32 110.489 94.491C110.99 94.662 111.423 94.9122 111.791 95.2415C112.158 95.5645 112.446 95.9603 112.655 96.429C112.864 96.8977 112.969 97.4297 112.969 98.025C112.969 98.5317 112.893 99.0035 112.741 99.4405C112.589 99.8712 112.383 100.283 112.123 100.675C111.864 101.068 111.563 101.451 111.221 101.825C110.885 102.199 110.527 102.575 110.147 102.955L106.556 106.622C106.81 106.553 107.066 106.499 107.326 106.461C107.585 106.417 107.836 106.394 108.076 106.394H112.636ZM124.731 101.198C124.731 102.389 124.601 103.421 124.342 104.295C124.088 105.163 123.74 105.881 123.297 106.451C122.853 107.021 122.328 107.446 121.72 107.724C121.118 108.003 120.472 108.143 119.782 108.143C119.085 108.143 118.436 108.003 117.834 107.724C117.239 107.446 116.72 107.021 116.276 106.451C115.833 105.881 115.485 105.163 115.231 104.295C114.978 103.421 114.851 102.389 114.851 101.198C114.851 100.007 114.978 98.975 115.231 98.101C115.485 97.227 115.833 96.505 116.276 95.935C116.72 95.3587 117.239 94.9312 117.834 94.6525C118.436 94.3738 119.085 94.2345 119.782 94.2345C120.472 94.2345 121.118 94.3738 121.72 94.6525C122.328 94.9312 122.853 95.3587 123.297 95.935C123.74 96.505 124.088 97.227 124.342 98.101C124.601 98.975 124.731 100.007 124.731 101.198ZM122.974 101.198C122.974 100.159 122.885 99.2885 122.708 98.5855C122.537 97.8762 122.302 97.3062 122.005 96.8755C121.713 96.4448 121.375 96.1377 120.988 95.954C120.602 95.764 120.2 95.669 119.782 95.669C119.364 95.669 118.962 95.764 118.575 95.954C118.189 96.1377 117.85 96.4448 117.559 96.8755C117.267 97.3062 117.033 97.8762 116.856 98.5855C116.685 99.2885 116.599 100.159 116.599 101.198C116.599 102.237 116.685 103.107 116.856 103.81C117.033 104.513 117.267 105.08 117.559 105.511C117.85 105.942 118.189 106.252 118.575 106.442C118.962 106.626 119.364 106.717 119.782 106.717C120.2 106.717 120.602 106.626 120.988 106.442C121.375 106.252 121.713 105.942 122.005 105.511C122.302 105.08 122.537 104.513 122.708 103.81C122.885 103.107 122.974 102.237 122.974 101.198ZM135.753 101.198C135.753 102.389 135.623 103.421 135.363 104.295C135.11 105.163 134.762 105.881 134.318 106.451C133.875 107.021 133.349 107.446 132.741 107.724C132.14 108.003 131.494 108.143 130.803 108.143C130.107 108.143 129.457 108.003 128.856 107.724C128.26 107.446 127.741 107.021 127.298 106.451C126.854 105.881 126.506 105.163 126.253 104.295C125.999 103.421 125.873 102.389 125.873 101.198C125.873 100.007 125.999 98.975 126.253 98.101C126.506 97.227 126.854 96.505 127.298 95.935C127.741 95.3587 128.26 94.9312 128.856 94.6525C129.457 94.3738 130.107 94.2345 130.803 94.2345C131.494 94.2345 132.14 94.3738 132.741 94.6525C133.349 94.9312 133.875 95.3587 134.318 95.935C134.762 96.505 135.11 97.227 135.363 98.101C135.623 98.975 135.753 100.007 135.753 101.198ZM133.995 101.198C133.995 100.159 133.907 99.2885 133.729 98.5855C133.558 97.8762 133.324 97.3062 133.026 96.8755C132.735 96.4448 132.396 96.1377 132.01 95.954C131.623 95.764 131.221 95.669 130.803 95.669C130.385 95.669 129.983 95.764 129.597 95.954C129.21 96.1377 128.872 96.4448 128.58 96.8755C128.289 97.3062 128.055 97.8762 127.877 98.5855C127.706 99.2885 127.621 100.159 127.621 101.198C127.621 102.237 127.706 103.107 127.877 103.81C128.055 104.513 128.289 105.08 128.58 105.511C128.872 105.942 129.21 106.252 129.597 106.442C129.983 106.626 130.385 106.717 130.803 106.717C131.221 106.717 131.623 106.626 132.01 106.442C132.396 106.252 132.735 105.942 133.026 105.511C133.324 105.08 133.558 104.513 133.729 103.81C133.907 103.107 133.995 102.237 133.995 101.198ZM146.774 101.198C146.774 102.389 146.644 103.421 146.385 104.295C146.131 105.163 145.783 105.881 145.34 106.451C144.896 107.021 144.371 107.446 143.763 107.724C143.161 108.003 142.515 108.143 141.825 108.143C141.128 108.143 140.479 108.003 139.877 107.724C139.282 107.446 138.763 107.021 138.319 106.451C137.876 105.881 137.528 105.163 137.274 104.295C137.021 103.421 136.894 102.389 136.894 101.198C136.894 100.007 137.021 98.975 137.274 98.101C137.528 97.227 137.876 96.505 138.319 95.935C138.763 95.3587 139.282 94.9312 139.877 94.6525C140.479 94.3738 141.128 94.2345 141.825 94.2345C142.515 94.2345 143.161 94.3738 143.763 94.6525C144.371 94.9312 144.896 95.3587 145.34 95.935C145.783 96.505 146.131 97.227 146.385 98.101C146.644 98.975 146.774 100.007 146.774 101.198ZM145.017 101.198C145.017 100.159 144.928 99.2885 144.751 98.5855C144.58 97.8762 144.345 97.3062 144.048 96.8755C143.756 96.4448 143.418 96.1377 143.031 95.954C142.645 95.764 142.243 95.669 141.825 95.669C141.407 95.669 141.005 95.764 140.618 95.954C140.232 96.1377 139.893 96.4448 139.602 96.8755C139.31 97.3062 139.076 97.8762 138.899 98.5855C138.728 99.2885 138.642 100.159 138.642 101.198C138.642 102.237 138.728 103.107 138.899 103.81C139.076 104.513 139.31 105.08 139.602 105.511C139.893 105.942 140.232 106.252 140.618 106.442C141.005 106.626 141.407 106.717 141.825 106.717C142.243 106.717 142.645 106.626 143.031 106.442C143.418 106.252 143.756 105.942 144.048 105.511C144.345 105.08 144.58 104.513 144.751 103.81C144.928 103.107 145.017 102.237 145.017 101.198Z" fill="white"/>
</g>
<defs>
<filter id="filter0_d_1166_12909" x="0" y="0" width="203" height="128" filterUnits="userSpaceOnUse" color-interpolation-filters="sRGB">
<feFlood flood-opacity="0" result="BackgroundImageFix"/>
<feColorMatrix in="SourceAlpha" type="matrix" values="0 0 0 0 0 0 0 0 0 0 0 0 0 0 0 0 0 0 127 0" result="hardAlpha"/>
<feOffset dy="4"/>
<feGaussianBlur stdDeviation="2"/>
<feComposite in2="hardAlpha" operator="out"/>
<feColorMatrix type="matrix" values="0 0 0 0 1 0 0 0 0 1 0 0 0 0 1 0 0 0 0.52 0"/>
<feBlend mode="normal" in2="BackgroundImageFix" result="effect1_dropShadow_1166_12909"/>
<feBlend mode="normal" in="SourceGraphic" in2="effect1_dropShadow_1166_12909" result="shape"/>
</filter>
</defs>
</svg>
