<svg width="202" height="120" viewBox="0 0 202 120" fill="none" xmlns="http://www.w3.org/2000/svg">
<g filter="url(#filter0_d_1156_13181)">
<rect width="194" height="112" transform="translate(4)" fill="#0A272E" fill-opacity="0.84"/>
<path d="M60.0305 24.335C59.978 24.335 59.943 24.335 59.8905 24.335C59.803 24.3175 59.6805 24.3175 59.5755 24.335C54.5005 24.1775 50.668 20.1875 50.668 15.27C50.668 10.265 54.7455 6.1875 59.7505 6.1875C64.7555 6.1875 68.833 10.265 68.833 15.27C68.8155 20.1875 64.9655 24.1775 60.083 24.335C60.0655 24.335 60.048 24.335 60.0305 24.335ZM59.7505 8.8125C56.198 8.8125 53.293 11.7175 53.293 15.27C53.293 18.77 56.023 21.5875 59.5055 21.71C59.6105 21.6925 59.838 21.6925 60.0655 21.71C63.4955 21.5525 66.1905 18.735 66.208 15.27C66.208 11.7175 63.303 8.8125 59.7505 8.8125Z" fill="#D5D7E9"/>
<path d="M60.0483 43.4625C56.6183 43.4625 53.1708 42.5875 50.5633 40.8375C48.1308 39.2275 46.8008 37.0225 46.8008 34.625C46.8008 32.2275 48.1308 30.005 50.5633 28.3775C55.8133 24.895 64.3183 24.895 69.5333 28.3775C71.9483 29.9875 73.2958 32.1925 73.2958 34.59C73.2958 36.9875 71.9658 39.21 69.5333 40.8375C66.9083 42.5875 63.4783 43.4625 60.0483 43.4625ZM52.0158 30.5825C50.3358 31.7025 49.4258 33.1375 49.4258 34.6425C49.4258 36.13 50.3533 37.565 52.0158 38.6675C56.3733 41.59 63.7233 41.59 68.0808 38.6675C69.7608 37.5475 70.6708 36.1125 70.6708 34.6075C70.6708 33.12 69.7433 31.685 68.0808 30.5825C63.7233 27.6775 56.3733 27.6775 52.0158 30.5825Z" fill="#D5D7E9"/>
<path d="M96.0305 24.335C95.978 24.335 95.943 24.335 95.8905 24.335C95.803 24.3175 95.6805 24.3175 95.5755 24.335C90.5005 24.1775 86.668 20.1875 86.668 15.27C86.668 10.265 90.7455 6.1875 95.7505 6.1875C100.755 6.1875 104.833 10.265 104.833 15.27C104.815 20.1875 100.965 24.1775 96.083 24.335C96.0655 24.335 96.048 24.335 96.0305 24.335ZM95.7505 8.8125C92.198 8.8125 89.293 11.7175 89.293 15.27C89.293 18.77 92.023 21.5875 95.5055 21.71C95.6105 21.6925 95.838 21.6925 96.0655 21.71C99.4955 21.5525 102.19 18.735 102.208 15.27C102.208 11.7175 99.303 8.8125 95.7505 8.8125Z" fill="#D5D7E9"/>
<path d="M96.0483 43.4625C92.6183 43.4625 89.1708 42.5875 86.5633 40.8375C84.1308 39.2275 82.8008 37.0225 82.8008 34.625C82.8008 32.2275 84.1308 30.005 86.5633 28.3775C91.8133 24.895 100.318 24.895 105.533 28.3775C107.948 29.9875 109.296 32.1925 109.296 34.59C109.296 36.9875 107.966 39.21 105.533 40.8375C102.908 42.5875 99.4783 43.4625 96.0483 43.4625ZM88.0158 30.5825C86.3358 31.7025 85.4258 33.1375 85.4258 34.6425C85.4258 36.13 86.3533 37.565 88.0158 38.6675C92.3733 41.59 99.7233 41.59 104.081 38.6675C105.761 37.5475 106.671 36.1125 106.671 34.6075C106.671 33.12 105.743 31.685 104.081 30.5825C99.7233 27.6775 92.3733 27.6775 88.0158 30.5825Z" fill="#D5D7E9"/>
<path d="M132.03 24.335C131.978 24.335 131.943 24.335 131.89 24.335C131.803 24.3175 131.68 24.3175 131.575 24.335C126.5 24.1775 122.668 20.1875 122.668 15.27C122.668 10.265 126.745 6.1875 131.75 6.1875C136.755 6.1875 140.833 10.265 140.833 15.27C140.815 20.1875 136.965 24.1775 132.083 24.335C132.065 24.335 132.048 24.335 132.03 24.335ZM131.75 8.8125C128.198 8.8125 125.293 11.7175 125.293 15.27C125.293 18.77 128.023 21.5875 131.505 21.71C131.61 21.6925 131.838 21.6925 132.065 21.71C135.495 21.5525 138.19 18.735 138.208 15.27C138.208 11.7175 135.303 8.8125 131.75 8.8125Z" fill="#D5D7E9"/>
<path d="M132.048 43.4625C128.618 43.4625 125.171 42.5875 122.563 40.8375C120.131 39.2275 118.801 37.0225 118.801 34.625C118.801 32.2275 120.131 30.005 122.563 28.3775C127.813 24.895 136.318 24.895 141.533 28.3775C143.948 29.9875 145.296 32.1925 145.296 34.59C145.296 36.9875 143.966 39.21 141.533 40.8375C138.908 42.5875 135.478 43.4625 132.048 43.4625ZM124.016 30.5825C122.336 31.7025 121.426 33.1375 121.426 34.6425C121.426 36.13 122.353 37.565 124.016 38.6675C128.373 41.59 135.723 41.59 140.081 38.6675C141.761 37.5475 142.671 36.1125 142.671 34.6075C142.671 33.12 141.743 31.685 140.081 30.5825C135.723 27.6775 128.373 27.6775 124.016 30.5825Z" fill="#D5D7E9"/>
<path d="M34.51 65.9795C35.042 65.9795 35.5107 65.9162 35.916 65.7895C36.3277 65.6565 36.6697 65.4728 36.942 65.2385C37.2207 64.9978 37.4297 64.7128 37.569 64.3835C37.7083 64.0542 37.778 63.69 37.778 63.291C37.778 62.4803 37.512 61.8692 36.98 61.4575C36.448 61.0458 35.65 60.84 34.586 60.84H32.572V65.9795H34.51ZM40.799 73H39.165C38.8293 73 38.5823 72.8702 38.424 72.6105L34.89 67.7465C34.7823 67.5945 34.6652 67.4868 34.5385 67.4235C34.4182 67.3538 34.2282 67.319 33.9685 67.319H32.572V73H30.7385V59.3865H34.586C35.4473 59.3865 36.1915 59.4752 36.8185 59.6525C37.4455 59.8235 37.9617 60.0737 38.367 60.403C38.7787 60.7323 39.0827 61.1313 39.279 61.6C39.4753 62.0623 39.5735 62.5817 39.5735 63.158C39.5735 63.6393 39.4975 64.089 39.3455 64.507C39.1935 64.925 38.9718 65.3018 38.6805 65.6375C38.3955 65.9668 38.044 66.2487 37.626 66.483C37.2143 66.7173 36.7457 66.8947 36.22 67.015C36.4543 67.148 36.657 67.3412 36.828 67.5945L40.799 73ZM48.0803 67.1385C48.0803 66.7458 48.0233 66.388 47.9093 66.065C47.8016 65.7357 47.6401 65.4538 47.4248 65.2195C47.2158 64.9788 46.9593 64.7952 46.6553 64.6685C46.3513 64.5355 46.0061 64.469 45.6198 64.469C44.8091 64.469 44.1663 64.7065 43.6913 65.1815C43.2226 65.6502 42.9313 66.3025 42.8173 67.1385H48.0803ZM49.4483 71.651C49.2393 71.9043 48.9891 72.126 48.6978 72.316C48.4065 72.4997 48.093 72.6517 47.7573 72.772C47.428 72.8923 47.086 72.981 46.7313 73.038C46.3766 73.1013 46.0251 73.133 45.6768 73.133C45.0118 73.133 44.3975 73.0222 43.8338 72.8005C43.2765 72.5725 42.792 72.2432 42.3803 71.8125C41.975 71.3755 41.6583 70.8372 41.4303 70.1975C41.2023 69.5578 41.0883 68.8232 41.0883 67.9935C41.0883 67.3222 41.1896 66.6952 41.3923 66.1125C41.6013 65.5298 41.899 65.0263 42.2853 64.602C42.6716 64.1713 43.1435 63.8357 43.7008 63.595C44.2581 63.348 44.8851 63.2245 45.5818 63.2245C46.1581 63.2245 46.6901 63.3227 47.1778 63.519C47.6718 63.709 48.0961 63.9877 48.4508 64.355C48.8118 64.716 49.0936 65.1657 49.2963 65.704C49.499 66.236 49.6003 66.844 49.6003 67.528C49.6003 67.794 49.5718 67.9713 49.5148 68.06C49.4578 68.1487 49.3501 68.193 49.1918 68.193H42.7603C42.7793 68.801 42.8616 69.3298 43.0073 69.7795C43.1593 70.2292 43.3683 70.606 43.6343 70.91C43.9003 71.2077 44.217 71.4325 44.5843 71.5845C44.9516 71.7302 45.3633 71.803 45.8193 71.803C46.2436 71.803 46.6078 71.7555 46.9118 71.6605C47.2221 71.5592 47.4881 71.4515 47.7098 71.3375C47.9315 71.2235 48.1151 71.119 48.2608 71.024C48.4128 70.9227 48.5426 70.872 48.6503 70.872C48.7896 70.872 48.8973 70.9258 48.9733 71.0335L49.4483 71.651ZM52.2116 73V64.8205L51.1476 64.697C51.0146 64.6653 50.9038 64.6178 50.8151 64.5545C50.7328 64.4848 50.6916 64.3867 50.6916 64.26V63.5665H52.2116V62.6355C52.2116 62.0845 52.2876 61.5968 52.4396 61.1725C52.598 60.7418 52.8196 60.3808 53.1046 60.0895C53.396 59.7918 53.7443 59.567 54.1496 59.415C54.555 59.263 55.011 59.187 55.5176 59.187C55.9483 59.187 56.3441 59.2503 56.7051 59.377L56.6671 60.2225C56.6545 60.3745 56.569 60.4568 56.4106 60.4695C56.2586 60.4822 56.0528 60.4885 55.7931 60.4885C55.5018 60.4885 55.2358 60.5265 54.9951 60.6025C54.7608 60.6785 54.5581 60.802 54.3871 60.973C54.2161 61.144 54.0831 61.3688 53.9881 61.6475C53.8995 61.9262 53.8551 62.2713 53.8551 62.683V63.5665H56.6291V64.792H53.9121V73H52.2116ZM64.3713 67.1385C64.3713 66.7458 64.3143 66.388 64.2003 66.065C64.0927 65.7357 63.9312 65.4538 63.7158 65.2195C63.5068 64.9788 63.2503 64.7952 62.9463 64.6685C62.6423 64.5355 62.2972 64.469 61.9108 64.469C61.1002 64.469 60.4573 64.7065 59.9823 65.1815C59.5137 65.6502 59.2223 66.3025 59.1083 67.1385H64.3713ZM65.7393 71.651C65.5303 71.9043 65.2802 72.126 64.9888 72.316C64.6975 72.4997 64.384 72.6517 64.0483 72.772C63.719 72.8923 63.377 72.981 63.0223 73.038C62.6677 73.1013 62.3162 73.133 61.9678 73.133C61.3028 73.133 60.6885 73.0222 60.1248 72.8005C59.5675 72.5725 59.083 72.2432 58.6713 71.8125C58.266 71.3755 57.9493 70.8372 57.7213 70.1975C57.4933 69.5578 57.3793 68.8232 57.3793 67.9935C57.3793 67.3222 57.4807 66.6952 57.6833 66.1125C57.8923 65.5298 58.19 65.0263 58.5763 64.602C58.9627 64.1713 59.4345 63.8357 59.9918 63.595C60.5492 63.348 61.1762 63.2245 61.8728 63.2245C62.4492 63.2245 62.9812 63.3227 63.4688 63.519C63.9628 63.709 64.3872 63.9877 64.7418 64.355C65.1028 64.716 65.3847 65.1657 65.5873 65.704C65.79 66.236 65.8913 66.844 65.8913 67.528C65.8913 67.794 65.8628 67.9713 65.8058 68.06C65.7488 68.1487 65.6412 68.193 65.4828 68.193H59.0513C59.0703 68.801 59.1527 69.3298 59.2983 69.7795C59.4503 70.2292 59.6593 70.606 59.9253 70.91C60.1913 71.2077 60.508 71.4325 60.8753 71.5845C61.2427 71.7302 61.6543 71.803 62.1103 71.803C62.5347 71.803 62.8988 71.7555 63.2028 71.6605C63.5132 71.5592 63.7792 71.4515 64.0008 71.3375C64.2225 71.2235 64.4062 71.119 64.5518 71.024C64.7038 70.9227 64.8337 70.872 64.9413 70.872C65.0807 70.872 65.1883 70.9258 65.2643 71.0335L65.7393 71.651ZM69.5739 65.305C69.8779 64.6463 70.2516 64.1333 70.6949 63.766C71.1382 63.3923 71.6797 63.2055 72.3194 63.2055C72.5221 63.2055 72.7152 63.2277 72.8989 63.272C73.0889 63.3163 73.2567 63.386 73.4024 63.481L73.2789 64.7445C73.2409 64.9028 73.1459 64.982 72.9939 64.982C72.9052 64.982 72.7754 64.963 72.6044 64.925C72.4334 64.887 72.2402 64.868 72.0249 64.868C71.7209 64.868 71.4486 64.9123 71.2079 65.001C70.9736 65.0897 70.7614 65.2227 70.5714 65.4C70.3877 65.571 70.2199 65.7863 70.0679 66.046C69.9222 66.2993 69.7892 66.5907 69.6689 66.92V73H67.9684V63.3765H68.9374C69.1211 63.3765 69.2477 63.4113 69.3174 63.481C69.3871 63.5507 69.4346 63.671 69.4599 63.842L69.5739 65.305ZM76.4948 65.305C76.7988 64.6463 77.1725 64.1333 77.6158 63.766C78.0591 63.3923 78.6006 63.2055 79.2403 63.2055C79.443 63.2055 79.6361 63.2277 79.8198 63.272C80.0098 63.3163 80.1776 63.386 80.3233 63.481L80.1998 64.7445C80.1618 64.9028 80.0668 64.982 79.9148 64.982C79.8261 64.982 79.6963 64.963 79.5253 64.925C79.3543 64.887 79.1611 64.868 78.9458 64.868C78.6418 64.868 78.3695 64.9123 78.1288 65.001C77.8945 65.0897 77.6823 65.2227 77.4923 65.4C77.3086 65.571 77.1408 65.7863 76.9888 66.046C76.8431 66.2993 76.7101 66.5907 76.5898 66.92V73H74.8893V63.3765H75.8583C76.042 63.3765 76.1686 63.4113 76.2383 63.481C76.308 63.5507 76.3555 63.671 76.3808 63.842L76.4948 65.305ZM86.8773 68.668C86.0983 68.6933 85.4333 68.7567 84.8823 68.858C84.3376 68.953 83.8911 69.0797 83.5428 69.238C83.2008 69.3963 82.9506 69.5832 82.7923 69.7985C82.6403 70.0138 82.5643 70.2545 82.5643 70.5205C82.5643 70.7738 82.6054 70.9923 82.6878 71.176C82.7701 71.3597 82.8809 71.5117 83.0203 71.632C83.1659 71.746 83.3338 71.8315 83.5238 71.8885C83.7201 71.9392 83.9291 71.9645 84.1508 71.9645C84.4484 71.9645 84.7208 71.936 84.9678 71.879C85.2148 71.8157 85.4459 71.727 85.6613 71.613C85.8829 71.499 86.0919 71.3628 86.2883 71.2045C86.4909 71.0462 86.6873 70.8657 86.8773 70.663V68.668ZM81.4148 64.735C81.9468 64.222 82.5199 63.8388 83.1343 63.5855C83.7486 63.3322 84.4294 63.2055 85.1768 63.2055C85.7151 63.2055 86.1933 63.2942 86.6113 63.4715C87.0293 63.6488 87.3808 63.8958 87.6658 64.2125C87.9508 64.5292 88.1661 64.9123 88.3118 65.362C88.4574 65.8117 88.5303 66.3057 88.5303 66.844V73H87.7798C87.6151 73 87.4884 72.9747 87.3998 72.924C87.3111 72.867 87.2414 72.7593 87.1908 72.601L87.0008 71.689C86.7474 71.9233 86.5004 72.1323 86.2598 72.316C86.0191 72.4933 85.7658 72.6453 85.4998 72.772C85.2338 72.8923 84.9488 72.9842 84.6448 73.0475C84.3471 73.1172 84.0146 73.152 83.6473 73.152C83.2736 73.152 82.9221 73.1013 82.5928 73C82.2634 72.8923 81.9753 72.734 81.7283 72.525C81.4876 72.316 81.2944 72.0532 81.1488 71.7365C81.0094 71.4135 80.9398 71.0335 80.9398 70.5965C80.9398 70.2165 81.0443 69.8523 81.2533 69.504C81.4623 69.1493 81.8011 68.8358 82.2698 68.5635C82.7384 68.2912 83.3496 68.0695 84.1033 67.8985C84.8569 67.7212 85.7816 67.6198 86.8773 67.5945V66.844C86.8773 66.0967 86.7158 65.533 86.3928 65.153C86.0698 64.7667 85.5979 64.5735 84.9773 64.5735C84.5593 64.5735 84.2078 64.6273 83.9228 64.735C83.6441 64.8363 83.4003 64.9535 83.1913 65.0865C82.9886 65.2132 82.8113 65.3303 82.6593 65.438C82.5136 65.5393 82.3679 65.59 82.2223 65.59C82.1083 65.59 82.0101 65.5615 81.9278 65.5045C81.8454 65.4412 81.7758 65.3652 81.7188 65.2765L81.4148 64.735ZM92.8541 59.0065V73H91.1631V59.0065H92.8541ZM101.201 64.963C101.125 65.1023 101.008 65.172 100.85 65.172C100.755 65.172 100.647 65.1372 100.527 65.0675C100.407 64.9978 100.258 64.9218 100.08 64.8395C99.9093 64.7508 99.7035 64.6717 99.4628 64.602C99.2222 64.526 98.9372 64.488 98.6078 64.488C98.3228 64.488 98.0663 64.526 97.8383 64.602C97.6103 64.6717 97.414 64.7698 97.2493 64.8965C97.091 65.0232 96.9675 65.172 96.8788 65.343C96.7965 65.5077 96.7553 65.6882 96.7553 65.8845C96.7553 66.1315 96.825 66.3373 96.9643 66.502C97.11 66.6667 97.3 66.8092 97.5343 66.9295C97.7687 67.0498 98.0347 67.1575 98.3323 67.2525C98.63 67.3412 98.934 67.4393 99.2443 67.547C99.561 67.6483 99.8682 67.7623 100.166 67.889C100.464 68.0157 100.73 68.174 100.964 68.364C101.198 68.554 101.385 68.7883 101.524 69.067C101.67 69.3393 101.743 69.6687 101.743 70.055C101.743 70.4983 101.664 70.91 101.505 71.29C101.347 71.6637 101.113 71.9898 100.802 72.2685C100.492 72.5408 100.112 72.7562 99.6623 72.9145C99.2127 73.0728 98.6933 73.152 98.1043 73.152C97.433 73.152 96.825 73.0443 96.2803 72.829C95.7357 72.6073 95.2733 72.3255 94.8933 71.9835L95.2923 71.3375C95.343 71.2552 95.4032 71.1918 95.4728 71.1475C95.5425 71.1032 95.6312 71.081 95.7388 71.081C95.8528 71.081 95.9732 71.1253 96.0998 71.214C96.2265 71.3027 96.3785 71.4008 96.5558 71.5085C96.7395 71.6162 96.9612 71.7143 97.2208 71.803C97.4805 71.8917 97.8035 71.936 98.1898 71.936C98.5192 71.936 98.8073 71.8948 99.0543 71.8125C99.3013 71.7238 99.5072 71.6067 99.6718 71.461C99.8365 71.3153 99.9568 71.1475 100.033 70.9575C100.115 70.7675 100.156 70.5648 100.156 70.3495C100.156 70.0835 100.084 69.865 99.9378 69.694C99.7985 69.5167 99.6117 69.3678 99.3773 69.2475C99.143 69.1208 98.8738 69.0132 98.5698 68.9245C98.2722 68.8295 97.965 68.7313 97.6483 68.63C97.338 68.5287 97.0308 68.4147 96.7268 68.288C96.4292 68.155 96.1632 67.9903 95.9288 67.794C95.6945 67.5977 95.5045 67.357 95.3588 67.072C95.2195 66.7807 95.1498 66.4292 95.1498 66.0175C95.1498 65.6502 95.2258 65.2987 95.3778 64.963C95.5298 64.621 95.7515 64.3233 96.0428 64.07C96.3342 63.8103 96.692 63.6045 97.1163 63.4525C97.5407 63.3005 98.0252 63.2245 98.5698 63.2245C99.2032 63.2245 99.77 63.3258 100.27 63.5285C100.777 63.7248 101.214 63.9972 101.581 64.3455L101.201 64.963ZM116.04 61.5145C115.983 61.6095 115.92 61.6823 115.85 61.733C115.787 61.7773 115.707 61.7995 115.612 61.7995C115.505 61.7995 115.378 61.7457 115.232 61.638C115.087 61.5303 114.903 61.4132 114.681 61.2865C114.466 61.1535 114.203 61.0332 113.893 60.9255C113.589 60.8178 113.218 60.764 112.781 60.764C112.37 60.764 112.006 60.821 111.689 60.935C111.379 61.0427 111.116 61.1915 110.9 61.3815C110.691 61.5715 110.533 61.7963 110.425 62.056C110.318 62.3093 110.264 62.5848 110.264 62.8825C110.264 63.2625 110.356 63.5792 110.539 63.8325C110.729 64.0795 110.976 64.2917 111.28 64.469C111.591 64.6463 111.939 64.8015 112.325 64.9345C112.718 65.0612 113.117 65.1942 113.522 65.3335C113.934 65.4728 114.333 65.6312 114.719 65.8085C115.112 65.9795 115.46 66.198 115.764 66.464C116.075 66.73 116.322 67.0562 116.505 67.4425C116.695 67.8288 116.79 68.3038 116.79 68.8675C116.79 69.4628 116.689 70.0233 116.486 70.549C116.284 71.0683 115.986 71.5212 115.593 71.9075C115.207 72.2938 114.729 72.5978 114.159 72.8195C113.595 73.0412 112.952 73.152 112.23 73.152C111.344 73.152 110.539 72.9937 109.817 72.677C109.095 72.354 108.478 71.9202 107.965 71.3755L108.497 70.5015C108.548 70.4318 108.608 70.3748 108.677 70.3305C108.753 70.2798 108.836 70.2545 108.924 70.2545C109.007 70.2545 109.099 70.2893 109.2 70.359C109.308 70.4223 109.428 70.5047 109.561 70.606C109.694 70.7073 109.846 70.8182 110.017 70.9385C110.188 71.0588 110.381 71.1697 110.596 71.271C110.818 71.3723 111.068 71.4578 111.347 71.5275C111.626 71.5908 111.939 71.6225 112.287 71.6225C112.724 71.6225 113.114 71.5623 113.456 71.442C113.798 71.3217 114.086 71.1538 114.32 70.9385C114.561 70.7168 114.745 70.454 114.871 70.15C114.998 69.846 115.061 69.5072 115.061 69.1335C115.061 68.7218 114.966 68.3862 114.776 68.1265C114.593 67.8605 114.349 67.6388 114.045 67.4615C113.741 67.2842 113.393 67.1353 113 67.015C112.607 66.8883 112.208 66.7617 111.803 66.635C111.398 66.502 110.999 66.35 110.606 66.179C110.213 66.008 109.865 65.7863 109.561 65.514C109.257 65.2417 109.01 64.9028 108.82 64.4975C108.636 64.0858 108.544 63.5792 108.544 62.9775C108.544 62.4962 108.636 62.0307 108.82 61.581C109.01 61.1313 109.282 60.7323 109.637 60.384C109.998 60.0357 110.438 59.757 110.957 59.548C111.483 59.339 112.085 59.2345 112.762 59.2345C113.522 59.2345 114.213 59.3548 114.833 59.5955C115.46 59.8362 116.011 60.1845 116.486 60.6405L116.04 61.5145ZM120.687 63.3765V73H118.996V63.3765H120.687ZM121.048 60.3555C121.048 60.5202 121.013 60.6753 120.944 60.821C120.88 60.9603 120.792 61.087 120.678 61.201C120.57 61.3087 120.44 61.3942 120.288 61.4575C120.142 61.5208 119.987 61.5525 119.823 61.5525C119.658 61.5525 119.503 61.5208 119.357 61.4575C119.218 61.3942 119.094 61.3087 118.987 61.201C118.879 61.087 118.793 60.9603 118.73 60.821C118.667 60.6753 118.635 60.5202 118.635 60.3555C118.635 60.1908 118.667 60.0357 118.73 59.89C118.793 59.738 118.879 59.6082 118.987 59.5005C119.094 59.3865 119.218 59.2978 119.357 59.2345C119.503 59.1712 119.658 59.1395 119.823 59.1395C119.987 59.1395 120.142 59.1712 120.288 59.2345C120.44 59.2978 120.57 59.3865 120.678 59.5005C120.792 59.6082 120.88 59.738 120.944 59.89C121.013 60.0357 121.048 60.1908 121.048 60.3555ZM126.819 68.2975C127.161 68.2975 127.462 68.25 127.721 68.155C127.981 68.06 128.2 67.927 128.377 67.756C128.554 67.585 128.687 67.3823 128.776 67.148C128.865 66.9073 128.909 66.6445 128.909 66.3595C128.909 65.7705 128.728 65.3018 128.367 64.9535C128.013 64.6052 127.497 64.431 126.819 64.431C126.135 64.431 125.612 64.6052 125.251 64.9535C124.897 65.3018 124.719 65.7705 124.719 66.3595C124.719 66.6445 124.764 66.9073 124.852 67.148C124.947 67.3823 125.084 67.585 125.261 67.756C125.438 67.927 125.657 68.06 125.916 68.155C126.176 68.25 126.477 68.2975 126.819 68.2975ZM129.868 73.5225C129.868 73.2882 129.802 73.0982 129.669 72.9525C129.536 72.8068 129.355 72.6928 129.127 72.6105C128.906 72.5282 128.646 72.4712 128.348 72.4395C128.051 72.4015 127.734 72.373 127.398 72.354C127.069 72.335 126.733 72.316 126.391 72.297C126.049 72.278 125.72 72.2463 125.403 72.202C125.049 72.3667 124.757 72.5757 124.529 72.829C124.308 73.076 124.197 73.3673 124.197 73.703C124.197 73.9183 124.251 74.1178 124.358 74.3015C124.472 74.4915 124.643 74.653 124.871 74.786C125.099 74.9253 125.384 75.033 125.726 75.109C126.075 75.1913 126.483 75.2325 126.952 75.2325C127.408 75.2325 127.816 75.1913 128.177 75.109C128.538 75.0267 128.842 74.9095 129.089 74.7575C129.343 74.6055 129.536 74.425 129.669 74.216C129.802 74.007 129.868 73.7758 129.868 73.5225ZM131.588 63.7565V64.3835C131.588 64.5925 131.455 64.7255 131.189 64.7825L130.096 64.925C130.312 65.343 130.419 65.8053 130.419 66.312C130.419 66.7807 130.328 67.2082 130.144 67.5945C129.967 67.9745 129.72 68.3007 129.403 68.573C129.086 68.8453 128.706 69.0543 128.263 69.2C127.82 69.3457 127.338 69.4185 126.819 69.4185C126.369 69.4185 125.945 69.3647 125.546 69.257C125.343 69.3837 125.188 69.5198 125.08 69.6655C124.973 69.8048 124.919 69.9473 124.919 70.093C124.919 70.321 125.011 70.4952 125.194 70.6155C125.384 70.7295 125.631 70.8118 125.935 70.8625C126.239 70.9132 126.585 70.9448 126.971 70.9575C127.364 70.9702 127.763 70.9923 128.168 71.024C128.58 71.0493 128.979 71.0968 129.365 71.1665C129.758 71.2362 130.106 71.3502 130.41 71.5085C130.714 71.6668 130.958 71.8853 131.141 72.164C131.331 72.4427 131.426 72.8037 131.426 73.247C131.426 73.6587 131.322 74.0577 131.113 74.444C130.91 74.8303 130.616 75.1723 130.229 75.47C129.843 75.774 129.368 76.0147 128.804 76.192C128.247 76.3757 127.617 76.4675 126.914 76.4675C126.211 76.4675 125.597 76.3978 125.071 76.2585C124.545 76.1192 124.108 75.9323 123.76 75.698C123.412 75.4637 123.149 75.1913 122.971 74.881C122.8 74.577 122.715 74.2572 122.715 73.9215C122.715 73.4465 122.864 73.0443 123.161 72.715C123.459 72.3857 123.868 72.1228 124.387 71.9265C124.102 71.7998 123.874 71.632 123.703 71.423C123.538 71.2077 123.456 70.9195 123.456 70.5585C123.456 70.4192 123.481 70.2767 123.532 70.131C123.583 69.979 123.659 69.8302 123.76 69.6845C123.868 69.5325 123.997 69.39 124.149 69.257C124.301 69.124 124.479 69.0068 124.681 68.9055C124.206 68.6395 123.836 68.288 123.57 67.851C123.304 67.4077 123.171 66.8947 123.171 66.312C123.171 65.8433 123.26 65.419 123.437 65.039C123.621 64.6527 123.874 64.3265 124.197 64.0605C124.52 63.7882 124.903 63.5792 125.346 63.4335C125.796 63.2878 126.287 63.215 126.819 63.215C127.237 63.215 127.626 63.2625 127.987 63.3575C128.348 63.4462 128.678 63.5792 128.975 63.7565H131.588ZM134.933 64.773C135.142 64.5387 135.363 64.3265 135.598 64.1365C135.832 63.9465 136.079 63.785 136.339 63.652C136.605 63.5127 136.883 63.4082 137.175 63.3385C137.472 63.2625 137.792 63.2245 138.134 63.2245C138.66 63.2245 139.122 63.3132 139.521 63.4905C139.926 63.6615 140.262 63.9085 140.528 64.2315C140.8 64.5482 141.006 64.9313 141.146 65.381C141.285 65.8307 141.355 66.3278 141.355 66.8725V73H139.654V66.8725C139.654 66.1442 139.486 65.5805 139.151 65.1815C138.821 64.7762 138.318 64.5735 137.64 64.5735C137.14 64.5735 136.671 64.6938 136.234 64.9345C135.803 65.1752 135.404 65.5013 135.037 65.913V73H133.337V63.3765H134.353C134.594 63.3765 134.743 63.4937 134.8 63.728L134.933 64.773ZM151.845 63.3765V73H150.838C150.597 73 150.445 72.8828 150.382 72.6485L150.249 71.613C149.831 72.0753 149.362 72.449 148.843 72.734C148.323 73.0127 147.728 73.152 147.057 73.152C146.531 73.152 146.066 73.0665 145.66 72.8955C145.261 72.7182 144.926 72.4712 144.653 72.1545C144.381 71.8378 144.175 71.4547 144.036 71.005C143.903 70.5553 143.836 70.0582 143.836 69.5135V63.3765H145.527V69.5135C145.527 70.2418 145.692 70.8055 146.021 71.2045C146.357 71.6035 146.867 71.803 147.551 71.803C148.051 71.803 148.517 71.6858 148.947 71.4515C149.384 71.2108 149.786 70.8815 150.154 70.4635V63.3765H151.845ZM156.227 70.682C156.537 71.1 156.876 71.3945 157.243 71.5655C157.61 71.7365 158.022 71.822 158.478 71.822C159.377 71.822 160.068 71.5022 160.549 70.8625C161.03 70.2228 161.271 69.3108 161.271 68.1265C161.271 67.4995 161.214 66.9612 161.1 66.5115C160.992 66.0618 160.834 65.6945 160.625 65.4095C160.416 65.1182 160.16 64.906 159.856 64.773C159.552 64.64 159.206 64.5735 158.82 64.5735C158.269 64.5735 157.785 64.7002 157.367 64.9535C156.955 65.2068 156.575 65.5647 156.227 66.027V70.682ZM156.141 64.868C156.546 64.3677 157.015 63.9655 157.547 63.6615C158.079 63.3575 158.687 63.2055 159.371 63.2055C159.928 63.2055 160.432 63.3132 160.882 63.5285C161.331 63.7375 161.714 64.051 162.031 64.469C162.348 64.8807 162.592 65.3937 162.763 66.008C162.934 66.6223 163.019 67.3285 163.019 68.1265C163.019 68.8358 162.924 69.4977 162.734 70.112C162.544 70.72 162.269 71.2488 161.908 71.6985C161.553 72.1418 161.116 72.4933 160.597 72.753C160.084 73.0063 159.504 73.133 158.858 73.133C158.269 73.133 157.762 73.0348 157.338 72.8385C156.92 72.6358 156.55 72.3572 156.227 72.0025V76.2585H154.526V63.3765H155.543C155.783 63.3765 155.932 63.4937 155.989 63.728L156.141 64.868ZM170.781 64.963C170.705 65.1023 170.588 65.172 170.43 65.172C170.335 65.172 170.227 65.1372 170.107 65.0675C169.987 64.9978 169.838 64.9218 169.66 64.8395C169.489 64.7508 169.284 64.6717 169.043 64.602C168.802 64.526 168.517 64.488 168.188 64.488C167.903 64.488 167.646 64.526 167.418 64.602C167.19 64.6717 166.994 64.7698 166.829 64.8965C166.671 65.0232 166.548 65.172 166.459 65.343C166.377 65.5077 166.335 65.6882 166.335 65.8845C166.335 66.1315 166.405 66.3373 166.544 66.502C166.69 66.6667 166.88 66.8092 167.114 66.9295C167.349 67.0498 167.615 67.1575 167.912 67.2525C168.21 67.3412 168.514 67.4393 168.824 67.547C169.141 67.6483 169.448 67.7623 169.746 67.889C170.044 68.0157 170.31 68.174 170.544 68.364C170.778 68.554 170.965 68.7883 171.104 69.067C171.25 69.3393 171.323 69.6687 171.323 70.055C171.323 70.4983 171.244 70.91 171.085 71.29C170.927 71.6637 170.693 71.9898 170.382 72.2685C170.072 72.5408 169.692 72.7562 169.242 72.9145C168.793 73.0728 168.273 73.152 167.684 73.152C167.013 73.152 166.405 73.0443 165.86 72.829C165.316 72.6073 164.853 72.3255 164.473 71.9835L164.872 71.3375C164.923 71.2552 164.983 71.1918 165.053 71.1475C165.123 71.1032 165.211 71.081 165.319 71.081C165.433 71.081 165.553 71.1253 165.68 71.214C165.807 71.3027 165.959 71.4008 166.136 71.5085C166.32 71.6162 166.541 71.7143 166.801 71.803C167.061 71.8917 167.384 71.936 167.77 71.936C168.099 71.936 168.387 71.8948 168.634 71.8125C168.881 71.7238 169.087 71.6067 169.252 71.461C169.417 71.3153 169.537 71.1475 169.613 70.9575C169.695 70.7675 169.736 70.5648 169.736 70.3495C169.736 70.0835 169.664 69.865 169.518 69.694C169.379 69.5167 169.192 69.3678 168.957 69.2475C168.723 69.1208 168.454 69.0132 168.15 68.9245C167.852 68.8295 167.545 68.7313 167.228 68.63C166.918 68.5287 166.611 68.4147 166.307 68.288C166.009 68.155 165.743 67.9903 165.509 67.794C165.275 67.5977 165.085 67.357 164.939 67.072C164.8 66.7807 164.73 66.4292 164.73 66.0175C164.73 65.6502 164.806 65.2987 164.958 64.963C165.11 64.621 165.332 64.3233 165.623 64.07C165.914 63.8103 166.272 63.6045 166.696 63.4525C167.121 63.3005 167.605 63.2245 168.15 63.2245C168.783 63.2245 169.35 63.3258 169.85 63.5285C170.357 63.7248 170.794 63.9972 171.161 64.3455L170.781 64.963Z" fill="white"/>
<path d="M98.8765 102.394C99.0602 102.394 99.2058 102.448 99.3135 102.556C99.4212 102.664 99.475 102.803 99.475 102.974V104H90.393V103.42C90.393 103.3 90.4183 103.177 90.469 103.05C90.5197 102.923 90.5988 102.806 90.7065 102.698L95.067 98.319C95.428 97.9517 95.7573 97.6002 96.055 97.2645C96.3527 96.9225 96.606 96.5805 96.815 96.2385C97.024 95.8965 97.1855 95.5513 97.2995 95.203C97.4135 94.8483 97.4705 94.4715 97.4705 94.0725C97.4705 93.6735 97.4072 93.3252 97.2805 93.0275C97.1538 92.7235 96.9797 92.4733 96.758 92.277C96.5427 92.0807 96.2862 91.935 95.9885 91.84C95.6908 91.7387 95.371 91.688 95.029 91.688C94.6807 91.688 94.3608 91.7387 94.0695 91.84C93.7782 91.9413 93.5185 92.0838 93.2905 92.2675C93.0688 92.4448 92.882 92.657 92.73 92.904C92.578 93.151 92.4703 93.4233 92.407 93.721C92.331 93.9427 92.2265 94.0915 92.0935 94.1675C91.9668 94.2372 91.7863 94.2562 91.552 94.2245L90.6685 94.0725C90.7572 93.4518 90.9282 92.904 91.1815 92.429C91.4412 91.9477 91.7642 91.5455 92.1505 91.2225C92.5432 90.8995 92.9897 90.6557 93.49 90.491C93.9903 90.32 94.5318 90.2345 95.1145 90.2345C95.6908 90.2345 96.2292 90.32 96.7295 90.491C97.2298 90.662 97.6637 90.9122 98.031 91.2415C98.3983 91.5645 98.6865 91.9603 98.8955 92.429C99.1045 92.8977 99.209 93.4297 99.209 94.025C99.209 94.5317 99.133 95.0035 98.981 95.4405C98.829 95.8712 98.6232 96.2828 98.3635 96.6755C98.1038 97.0682 97.803 97.4513 97.461 97.825C97.1253 98.1987 96.7675 98.5755 96.3875 98.9555L92.7965 102.622C93.0498 102.553 93.3063 102.499 93.566 102.461C93.8257 102.417 94.0758 102.394 94.3165 102.394H98.8765ZM110.192 102.708V104H102.896V102.708H105.813V93.4265C105.813 93.1478 105.822 92.866 105.841 92.581L103.419 94.6615C103.337 94.7312 103.254 94.7755 103.172 94.7945C103.09 94.8072 103.014 94.8072 102.944 94.7945C102.874 94.7818 102.808 94.7565 102.744 94.7185C102.687 94.6805 102.643 94.6393 102.611 94.595L102.079 93.8635L106.136 90.358H107.513V102.708H110.192Z" fill="white"/>
</g>
<defs>
<filter id="filter0_d_1156_13181" x="0" y="0" width="202" height="120" filterUnits="userSpaceOnUse" color-interpolation-filters="sRGB">
<feFlood flood-opacity="0" result="BackgroundImageFix"/>
<feColorMatrix in="SourceAlpha" type="matrix" values="0 0 0 0 0 0 0 0 0 0 0 0 0 0 0 0 0 0 127 0" result="hardAlpha"/>
<feOffset dy="4"/>
<feGaussianBlur stdDeviation="2"/>
<feComposite in2="hardAlpha" operator="out"/>
<feColorMatrix type="matrix" values="0 0 0 0 1 0 0 0 0 1 0 0 0 0 1 0 0 0 0.52 0"/>
<feBlend mode="normal" in2="BackgroundImageFix" result="effect1_dropShadow_1156_13181"/>
<feBlend mode="normal" in="SourceGraphic" in2="effect1_dropShadow_1156_13181" result="shape"/>
</filter>
</defs>
</svg>
