<svg width="226" height="122" viewBox="0 0 226 122" fill="none" xmlns="http://www.w3.org/2000/svg">
<g filter="url(#filter0_d_1166_12882)">
<rect width="218" height="114" transform="translate(4)" fill="#0A272E" fill-opacity="0.84"/>
<path d="M72.0305 26.335C71.978 26.335 71.943 26.335 71.8905 26.335C71.803 26.3175 71.6805 26.3175 71.5755 26.335C66.5005 26.1775 62.668 22.1875 62.668 17.27C62.668 12.265 66.7455 8.1875 71.7505 8.1875C76.7555 8.1875 80.833 12.265 80.833 17.27C80.8155 22.1875 76.9655 26.1775 72.083 26.335C72.0655 26.335 72.048 26.335 72.0305 26.335ZM71.7505 10.8125C68.198 10.8125 65.293 13.7175 65.293 17.27C65.293 20.77 68.023 23.5875 71.5055 23.71C71.6105 23.6925 71.838 23.6925 72.0655 23.71C75.4955 23.5525 78.1905 20.735 78.208 17.27C78.208 13.7175 75.303 10.8125 71.7505 10.8125Z" fill="#D5D7E9"/>
<path d="M72.0483 45.4625C68.6183 45.4625 65.1708 44.5875 62.5633 42.8375C60.1308 41.2275 58.8008 39.0225 58.8008 36.625C58.8008 34.2275 60.1308 32.005 62.5633 30.3775C67.8133 26.895 76.3183 26.895 81.5333 30.3775C83.9483 31.9875 85.2958 34.1925 85.2958 36.59C85.2958 38.9875 83.9658 41.21 81.5333 42.8375C78.9083 44.5875 75.4783 45.4625 72.0483 45.4625ZM64.0158 32.5825C62.3358 33.7025 61.4258 35.1375 61.4258 36.6425C61.4258 38.13 62.3533 39.565 64.0158 40.6675C68.3733 43.59 75.7233 43.59 80.0808 40.6675C81.7608 39.5475 82.6708 38.1125 82.6708 36.6075C82.6708 35.12 81.7433 33.685 80.0808 32.5825C75.7233 29.6775 68.3733 29.6775 64.0158 32.5825Z" fill="#D5D7E9"/>
<path d="M108.03 26.335C107.978 26.335 107.943 26.335 107.89 26.335C107.803 26.3175 107.68 26.3175 107.575 26.335C102.5 26.1775 98.668 22.1875 98.668 17.27C98.668 12.265 102.745 8.1875 107.75 8.1875C112.755 8.1875 116.833 12.265 116.833 17.27C116.815 22.1875 112.965 26.1775 108.083 26.335C108.065 26.335 108.048 26.335 108.03 26.335ZM107.75 10.8125C104.198 10.8125 101.293 13.7175 101.293 17.27C101.293 20.77 104.023 23.5875 107.505 23.71C107.61 23.6925 107.838 23.6925 108.065 23.71C111.495 23.5525 114.19 20.735 114.208 17.27C114.208 13.7175 111.303 10.8125 107.75 10.8125Z" fill="#D5D7E9"/>
<path d="M108.048 45.4625C104.618 45.4625 101.171 44.5875 98.5633 42.8375C96.1308 41.2275 94.8008 39.0225 94.8008 36.625C94.8008 34.2275 96.1308 32.005 98.5633 30.3775C103.813 26.895 112.318 26.895 117.533 30.3775C119.948 31.9875 121.296 34.1925 121.296 36.59C121.296 38.9875 119.966 41.21 117.533 42.8375C114.908 44.5875 111.478 45.4625 108.048 45.4625ZM100.016 32.5825C98.3358 33.7025 97.4258 35.1375 97.4258 36.6425C97.4258 38.13 98.3533 39.565 100.016 40.6675C104.373 43.59 111.723 43.59 116.081 40.6675C117.761 39.5475 118.671 38.1125 118.671 36.6075C118.671 35.12 117.743 33.685 116.081 32.5825C111.723 29.6775 104.373 29.6775 100.016 32.5825Z" fill="#D5D7E9"/>
<path d="M144.03 26.335C143.978 26.335 143.943 26.335 143.89 26.335C143.803 26.3175 143.68 26.3175 143.575 26.335C138.5 26.1775 134.668 22.1875 134.668 17.27C134.668 12.265 138.745 8.1875 143.75 8.1875C148.755 8.1875 152.833 12.265 152.833 17.27C152.815 22.1875 148.965 26.1775 144.083 26.335C144.065 26.335 144.048 26.335 144.03 26.335ZM143.75 10.8125C140.198 10.8125 137.293 13.7175 137.293 17.27C137.293 20.77 140.023 23.5875 143.505 23.71C143.61 23.6925 143.838 23.6925 144.065 23.71C147.495 23.5525 150.19 20.735 150.208 17.27C150.208 13.7175 147.303 10.8125 143.75 10.8125Z" fill="#D5D7E9"/>
<path d="M144.048 45.4625C140.618 45.4625 137.171 44.5875 134.563 42.8375C132.131 41.2275 130.801 39.0225 130.801 36.625C130.801 34.2275 132.131 32.005 134.563 30.3775C139.813 26.895 148.318 26.895 153.533 30.3775C155.948 31.9875 157.296 34.1925 157.296 36.59C157.296 38.9875 155.966 41.21 153.533 42.8375C150.908 44.5875 147.478 45.4625 144.048 45.4625ZM136.016 32.5825C134.336 33.7025 133.426 35.1375 133.426 36.6425C133.426 38.13 134.353 39.565 136.016 40.6675C140.373 43.59 147.723 43.59 152.081 40.6675C153.761 39.5475 154.671 38.1125 154.671 36.6075C154.671 35.12 153.743 33.685 152.081 32.5825C147.723 29.6775 140.373 29.6775 136.016 32.5825Z" fill="#D5D7E9"/>
<path d="M37.702 62.5145C37.645 62.6095 37.5817 62.6823 37.512 62.733C37.4487 62.7773 37.3695 62.7995 37.2745 62.7995C37.1668 62.7995 37.0402 62.7457 36.8945 62.638C36.7488 62.5303 36.5652 62.4132 36.3435 62.2865C36.1282 62.1535 35.8653 62.0332 35.555 61.9255C35.251 61.8178 34.8805 61.764 34.4435 61.764C34.0318 61.764 33.6677 61.821 33.351 61.935C33.0407 62.0427 32.7778 62.1915 32.5625 62.3815C32.3535 62.5715 32.1952 62.7963 32.0875 63.056C31.9798 63.3093 31.926 63.5848 31.926 63.8825C31.926 64.2625 32.0178 64.5792 32.2015 64.8325C32.3915 65.0795 32.6385 65.2917 32.9425 65.469C33.2528 65.6463 33.6012 65.8015 33.9875 65.9345C34.3802 66.0612 34.7792 66.1942 35.1845 66.3335C35.5962 66.4728 35.9952 66.6312 36.3815 66.8085C36.7742 66.9795 37.1225 67.198 37.4265 67.464C37.7368 67.73 37.9838 68.0562 38.1675 68.4425C38.3575 68.8288 38.4525 69.3038 38.4525 69.8675C38.4525 70.4628 38.3512 71.0233 38.1485 71.549C37.9458 72.0683 37.6482 72.5212 37.2555 72.9075C36.8692 73.2938 36.391 73.5978 35.821 73.8195C35.2573 74.0412 34.6145 74.152 33.8925 74.152C33.0058 74.152 32.2015 73.9937 31.4795 73.677C30.7575 73.354 30.14 72.9202 29.627 72.3755L30.159 71.5015C30.2097 71.4318 30.2698 71.3748 30.3395 71.3305C30.4155 71.2798 30.4978 71.2545 30.5865 71.2545C30.6688 71.2545 30.7607 71.2893 30.862 71.359C30.9697 71.4223 31.09 71.5047 31.223 71.606C31.356 71.7073 31.508 71.8182 31.679 71.9385C31.85 72.0588 32.0432 72.1697 32.2585 72.271C32.4802 72.3723 32.7303 72.4578 33.009 72.5275C33.2877 72.5908 33.6012 72.6225 33.9495 72.6225C34.3865 72.6225 34.776 72.5623 35.118 72.442C35.46 72.3217 35.7482 72.1538 35.9825 71.9385C36.2232 71.7168 36.4068 71.454 36.5335 71.15C36.6602 70.846 36.7235 70.5072 36.7235 70.1335C36.7235 69.7218 36.6285 69.3862 36.4385 69.1265C36.2548 68.8605 36.011 68.6388 35.707 68.4615C35.403 68.2842 35.0547 68.1353 34.662 68.015C34.2693 67.8883 33.8703 67.7617 33.465 67.635C33.0597 67.502 32.6607 67.35 32.268 67.179C31.8753 67.008 31.527 66.7863 31.223 66.514C30.919 66.2417 30.672 65.9028 30.482 65.4975C30.2983 65.0858 30.2065 64.5792 30.2065 63.9775C30.2065 63.4962 30.2983 63.0307 30.482 62.581C30.672 62.1313 30.9443 61.7323 31.299 61.384C31.66 61.0357 32.1002 60.757 32.6195 60.548C33.1452 60.339 33.7468 60.2345 34.4245 60.2345C35.1845 60.2345 35.8748 60.3548 36.4955 60.5955C37.1225 60.8362 37.6735 61.1845 38.1485 61.6405L37.702 62.5145ZM48.3839 64.3765V74H47.3769C47.1362 74 46.9842 73.8828 46.9209 73.6485L46.7879 72.613C46.3699 73.0753 45.9012 73.449 45.3819 73.734C44.8625 74.0127 44.2672 74.152 43.5959 74.152C43.0702 74.152 42.6047 74.0665 42.1994 73.8955C41.8004 73.7182 41.4647 73.4712 41.1924 73.1545C40.92 72.8378 40.7142 72.4547 40.5749 72.005C40.4419 71.5553 40.3754 71.0582 40.3754 70.5135V64.3765H42.0664V70.5135C42.0664 71.2418 42.231 71.8055 42.5604 72.2045C42.896 72.6035 43.4059 72.803 44.0899 72.803C44.5902 72.803 45.0557 72.6858 45.4864 72.4515C45.9234 72.2108 46.3255 71.8815 46.6929 71.4635V64.3765H48.3839ZM57.7626 66.0865C57.7119 66.1562 57.6613 66.21 57.6106 66.248C57.5599 66.286 57.4903 66.305 57.4016 66.305C57.3066 66.305 57.2021 66.267 57.0881 66.191C56.9741 66.1087 56.8316 66.02 56.6606 65.925C56.4959 65.83 56.2901 65.7445 56.0431 65.6685C55.8024 65.5862 55.5048 65.545 55.1501 65.545C54.6751 65.545 54.2571 65.6305 53.8961 65.8015C53.5351 65.9662 53.2311 66.2068 52.9841 66.5235C52.7434 66.8402 52.5598 67.2233 52.4331 67.673C52.3128 68.1227 52.2526 68.6262 52.2526 69.1835C52.2526 69.7662 52.3191 70.2855 52.4521 70.7415C52.5851 71.1912 52.7719 71.5712 53.0126 71.8815C53.2596 72.1855 53.5541 72.4198 53.8961 72.5845C54.2444 72.7428 54.6339 72.822 55.0646 72.822C55.4763 72.822 55.8151 72.7745 56.0811 72.6795C56.3471 72.5782 56.5656 72.4673 56.7366 72.347C56.9139 72.2267 57.0596 72.119 57.1736 72.024C57.2939 71.9227 57.4111 71.872 57.5251 71.872C57.6644 71.872 57.7721 71.9258 57.8481 72.0335L58.3231 72.651C58.1141 72.9107 57.8766 73.1323 57.6106 73.316C57.3446 73.4997 57.0564 73.6548 56.7461 73.7815C56.4421 73.9018 56.1223 73.9905 55.7866 74.0475C55.4509 74.1045 55.1089 74.133 54.7606 74.133C54.1589 74.133 53.5984 74.0222 53.0791 73.8005C52.5661 73.5788 52.1196 73.259 51.7396 72.841C51.3596 72.4167 51.0619 71.8973 50.8466 71.283C50.6313 70.6687 50.5236 69.9688 50.5236 69.1835C50.5236 68.4678 50.6218 67.806 50.8181 67.198C51.0208 66.59 51.3121 66.0675 51.6921 65.6305C52.0784 65.1872 52.5503 64.842 53.1076 64.595C53.6713 64.348 54.3173 64.2245 55.0456 64.2245C55.7233 64.2245 56.3186 64.3353 56.8316 64.557C57.3509 64.7723 57.8101 65.0795 58.2091 65.4785L57.7626 66.0865ZM66.6688 66.0865C66.6182 66.1562 66.5675 66.21 66.5168 66.248C66.4662 66.286 66.3965 66.305 66.3078 66.305C66.2128 66.305 66.1083 66.267 65.9943 66.191C65.8803 66.1087 65.7378 66.02 65.5668 65.925C65.4022 65.83 65.1963 65.7445 64.9493 65.6685C64.7087 65.5862 64.411 65.545 64.0563 65.545C63.5813 65.545 63.1633 65.6305 62.8023 65.8015C62.4413 65.9662 62.1373 66.2068 61.8903 66.5235C61.6497 66.8402 61.466 67.2233 61.3393 67.673C61.219 68.1227 61.1588 68.6262 61.1588 69.1835C61.1588 69.7662 61.2253 70.2855 61.3583 70.7415C61.4913 71.1912 61.6782 71.5712 61.9188 71.8815C62.1658 72.1855 62.4603 72.4198 62.8023 72.5845C63.1507 72.7428 63.5402 72.822 63.9708 72.822C64.3825 72.822 64.7213 72.7745 64.9873 72.6795C65.2533 72.5782 65.4718 72.4673 65.6428 72.347C65.8202 72.2267 65.9658 72.119 66.0798 72.024C66.2002 71.9227 66.3173 71.872 66.4313 71.872C66.5707 71.872 66.6783 71.9258 66.7543 72.0335L67.2293 72.651C67.0203 72.9107 66.7828 73.1323 66.5168 73.316C66.2508 73.4997 65.9627 73.6548 65.6523 73.7815C65.3483 73.9018 65.0285 73.9905 64.6928 74.0475C64.3572 74.1045 64.0152 74.133 63.6668 74.133C63.0652 74.133 62.5047 74.0222 61.9853 73.8005C61.4723 73.5788 61.0258 73.259 60.6458 72.841C60.2658 72.4167 59.9682 71.8973 59.7528 71.283C59.5375 70.6687 59.4298 69.9688 59.4298 69.1835C59.4298 68.4678 59.528 67.806 59.7243 67.198C59.927 66.59 60.2183 66.0675 60.5983 65.6305C60.9847 65.1872 61.4565 64.842 62.0138 64.595C62.5775 64.348 63.2235 64.2245 63.9518 64.2245C64.6295 64.2245 65.2248 64.3353 65.7378 64.557C66.2572 64.7723 66.7163 65.0795 67.1153 65.4785L66.6688 66.0865ZM75.3186 68.1385C75.3186 67.7458 75.2616 67.388 75.1476 67.065C75.0399 66.7357 74.8784 66.4538 74.6631 66.2195C74.4541 65.9788 74.1976 65.7952 73.8936 65.6685C73.5896 65.5355 73.2444 65.469 72.8581 65.469C72.0474 65.469 71.4046 65.7065 70.9296 66.1815C70.4609 66.6502 70.1696 67.3025 70.0556 68.1385H75.3186ZM76.6866 72.651C76.4776 72.9043 76.2274 73.126 75.9361 73.316C75.6448 73.4997 75.3313 73.6517 74.9956 73.772C74.6663 73.8923 74.3243 73.981 73.9696 74.038C73.6149 74.1013 73.2634 74.133 72.9151 74.133C72.2501 74.133 71.6358 74.0222 71.0721 73.8005C70.5148 73.5725 70.0303 73.2432 69.6186 72.8125C69.2133 72.3755 68.8966 71.8372 68.6686 71.1975C68.4406 70.5578 68.3266 69.8232 68.3266 68.9935C68.3266 68.3222 68.4279 67.6952 68.6306 67.1125C68.8396 66.5298 69.1373 66.0263 69.5236 65.602C69.9099 65.1713 70.3818 64.8357 70.9391 64.595C71.4964 64.348 72.1234 64.2245 72.8201 64.2245C73.3964 64.2245 73.9284 64.3227 74.4161 64.519C74.9101 64.709 75.3344 64.9877 75.6891 65.355C76.0501 65.716 76.3319 66.1657 76.5346 66.704C76.7373 67.236 76.8386 67.844 76.8386 68.528C76.8386 68.794 76.8101 68.9713 76.7531 69.06C76.6961 69.1487 76.5884 69.193 76.4301 69.193H69.9986C70.0176 69.801 70.0999 70.3298 70.2456 70.7795C70.3976 71.2292 70.6066 71.606 70.8726 71.91C71.1386 72.2077 71.4553 72.4325 71.8226 72.5845C72.1899 72.7302 72.6016 72.803 73.0576 72.803C73.4819 72.803 73.8461 72.7555 74.1501 72.6605C74.4604 72.5592 74.7264 72.4515 74.9481 72.3375C75.1698 72.2235 75.3534 72.119 75.4991 72.024C75.6511 71.9227 75.7809 71.872 75.8886 71.872C76.0279 71.872 76.1356 71.9258 76.2116 72.0335L76.6866 72.651ZM84.5207 65.963C84.4447 66.1023 84.3275 66.172 84.1692 66.172C84.0742 66.172 83.9665 66.1372 83.8462 66.0675C83.7258 65.9978 83.577 65.9218 83.3997 65.8395C83.2287 65.7508 83.0228 65.6717 82.7822 65.602C82.5415 65.526 82.2565 65.488 81.9272 65.488C81.6422 65.488 81.3857 65.526 81.1577 65.602C80.9297 65.6717 80.7333 65.7698 80.5687 65.8965C80.4103 66.0232 80.2868 66.172 80.1982 66.343C80.1158 66.5077 80.0747 66.6882 80.0747 66.8845C80.0747 67.1315 80.1443 67.3373 80.2837 67.502C80.4293 67.6667 80.6193 67.8092 80.8537 67.9295C81.088 68.0498 81.354 68.1575 81.6517 68.2525C81.9493 68.3412 82.2533 68.4393 82.5637 68.547C82.8803 68.6483 83.1875 68.7623 83.4852 68.889C83.7828 69.0157 84.0488 69.174 84.2832 69.364C84.5175 69.554 84.7043 69.7883 84.8437 70.067C84.9893 70.3393 85.0622 70.6687 85.0622 71.055C85.0622 71.4983 84.983 71.91 84.8247 72.29C84.6663 72.6637 84.432 72.9898 84.1217 73.2685C83.8113 73.5408 83.4313 73.7562 82.9817 73.9145C82.532 74.0728 82.0127 74.152 81.4237 74.152C80.7523 74.152 80.1443 74.0443 79.5997 73.829C79.055 73.6073 78.5927 73.3255 78.2127 72.9835L78.6117 72.3375C78.6623 72.2552 78.7225 72.1918 78.7922 72.1475C78.8618 72.1032 78.9505 72.081 79.0582 72.081C79.1722 72.081 79.2925 72.1253 79.4192 72.214C79.5458 72.3027 79.6978 72.4008 79.8752 72.5085C80.0588 72.6162 80.2805 72.7143 80.5402 72.803C80.7998 72.8917 81.1228 72.936 81.5092 72.936C81.8385 72.936 82.1267 72.8948 82.3737 72.8125C82.6207 72.7238 82.8265 72.6067 82.9912 72.461C83.1558 72.3153 83.2762 72.1475 83.3522 71.9575C83.4345 71.7675 83.4757 71.5648 83.4757 71.3495C83.4757 71.0835 83.4028 70.865 83.2572 70.694C83.1178 70.5167 82.931 70.3678 82.6967 70.2475C82.4623 70.1208 82.1932 70.0132 81.8892 69.9245C81.5915 69.8295 81.2843 69.7313 80.9677 69.63C80.6573 69.5287 80.3502 69.4147 80.0462 69.288C79.7485 69.155 79.4825 68.9903 79.2482 68.794C79.0138 68.5977 78.8238 68.357 78.6782 68.072C78.5388 67.7807 78.4692 67.4292 78.4692 67.0175C78.4692 66.6502 78.5452 66.2987 78.6972 65.963C78.8492 65.621 79.0708 65.3233 79.3622 65.07C79.6535 64.8103 80.0113 64.6045 80.4357 64.4525C80.86 64.3005 81.3445 64.2245 81.8892 64.2245C82.5225 64.2245 83.0893 64.3258 83.5897 64.5285C84.0963 64.7248 84.5333 64.9972 84.9007 65.3455L84.5207 65.963ZM92.7404 65.963C92.6644 66.1023 92.5472 66.172 92.3889 66.172C92.2939 66.172 92.1862 66.1372 92.0659 66.0675C91.9456 65.9978 91.7967 65.9218 91.6194 65.8395C91.4484 65.7508 91.2426 65.6717 91.0019 65.602C90.7612 65.526 90.4762 65.488 90.1469 65.488C89.8619 65.488 89.6054 65.526 89.3774 65.602C89.1494 65.6717 88.9531 65.7698 88.7884 65.8965C88.6301 66.0232 88.5066 66.172 88.4179 66.343C88.3356 66.5077 88.2944 66.6882 88.2944 66.8845C88.2944 67.1315 88.3641 67.3373 88.5034 67.502C88.6491 67.6667 88.8391 67.8092 89.0734 67.9295C89.3077 68.0498 89.5737 68.1575 89.8714 68.2525C90.1691 68.3412 90.4731 68.4393 90.7834 68.547C91.1001 68.6483 91.4072 68.7623 91.7049 68.889C92.0026 69.0157 92.2686 69.174 92.5029 69.364C92.7372 69.554 92.9241 69.7883 93.0634 70.067C93.2091 70.3393 93.2819 70.6687 93.2819 71.055C93.2819 71.4983 93.2027 71.91 93.0444 72.29C92.8861 72.6637 92.6517 72.9898 92.3414 73.2685C92.0311 73.5408 91.6511 73.7562 91.2014 73.9145C90.7517 74.0728 90.2324 74.152 89.6434 74.152C88.9721 74.152 88.3641 74.0443 87.8194 73.829C87.2747 73.6073 86.8124 73.3255 86.4324 72.9835L86.8314 72.3375C86.8821 72.2552 86.9422 72.1918 87.0119 72.1475C87.0816 72.1032 87.1702 72.081 87.2779 72.081C87.3919 72.081 87.5122 72.1253 87.6389 72.214C87.7656 72.3027 87.9176 72.4008 88.0949 72.5085C88.2786 72.6162 88.5002 72.7143 88.7599 72.803C89.0196 72.8917 89.3426 72.936 89.7289 72.936C90.0582 72.936 90.3464 72.8948 90.5934 72.8125C90.8404 72.7238 91.0462 72.6067 91.2109 72.461C91.3756 72.3153 91.4959 72.1475 91.5719 71.9575C91.6542 71.7675 91.6954 71.5648 91.6954 71.3495C91.6954 71.0835 91.6226 70.865 91.4769 70.694C91.3376 70.5167 91.1507 70.3678 90.9164 70.2475C90.6821 70.1208 90.4129 70.0132 90.1089 69.9245C89.8112 69.8295 89.5041 69.7313 89.1874 69.63C88.8771 69.5287 88.5699 69.4147 88.2659 69.288C87.9682 69.155 87.7022 68.9903 87.4679 68.794C87.2336 68.5977 87.0436 68.357 86.8979 68.072C86.7586 67.7807 86.6889 67.4292 86.6889 67.0175C86.6889 66.6502 86.7649 66.2987 86.9169 65.963C87.0689 65.621 87.2906 65.3233 87.5819 65.07C87.8732 64.8103 88.2311 64.6045 88.6554 64.4525C89.0797 64.3005 89.5642 64.2245 90.1089 64.2245C90.7422 64.2245 91.3091 64.3258 91.8094 64.5285C92.3161 64.7248 92.7531 64.9972 93.1204 65.3455L92.7404 65.963ZM95.9821 74V65.8205L94.9181 65.697C94.7851 65.6653 94.6743 65.6178 94.5856 65.5545C94.5033 65.4848 94.4621 65.3867 94.4621 65.26V64.5665H95.9821V63.6355C95.9821 63.0845 96.0581 62.5968 96.2101 62.1725C96.3685 61.7418 96.5901 61.3808 96.8751 61.0895C97.1665 60.7918 97.5148 60.567 97.9201 60.415C98.3255 60.263 98.7815 60.187 99.2881 60.187C99.7188 60.187 100.115 60.2503 100.476 60.377L100.438 61.2225C100.425 61.3745 100.339 61.4568 100.181 61.4695C100.029 61.4822 99.8233 61.4885 99.5636 61.4885C99.2723 61.4885 99.0063 61.5265 98.7656 61.6025C98.5313 61.6785 98.3286 61.802 98.1576 61.973C97.9866 62.144 97.8536 62.3688 97.7586 62.6475C97.67 62.9262 97.6256 63.2713 97.6256 63.683V64.5665H100.4V65.792H97.6826V74H95.9821ZM109.93 64.3765V74H108.923C108.682 74 108.53 73.8828 108.467 73.6485L108.334 72.613C107.916 73.0753 107.447 73.449 106.928 73.734C106.408 74.0127 105.813 74.152 105.142 74.152C104.616 74.152 104.151 74.0665 103.745 73.8955C103.346 73.7182 103.011 73.4712 102.738 73.1545C102.466 72.8378 102.26 72.4547 102.121 72.005C101.988 71.5553 101.921 71.0582 101.921 70.5135V64.3765H103.612V70.5135C103.612 71.2418 103.777 71.8055 104.106 72.2045C104.442 72.6035 104.952 72.803 105.636 72.803C106.136 72.803 106.602 72.6858 107.032 72.4515C107.469 72.2108 107.871 71.8815 108.239 71.4635V64.3765H109.93ZM114.359 60.0065V74H112.668V60.0065H114.359ZM126.38 67.445C126.906 67.445 127.368 67.3753 127.767 67.236C128.172 67.0967 128.511 66.9035 128.784 66.6565C129.062 66.4032 129.271 66.1023 129.411 65.754C129.55 65.4057 129.62 65.0225 129.62 64.6045C129.62 63.7368 129.35 63.0592 128.812 62.5715C128.28 62.0838 127.469 61.84 126.38 61.84H124.195V67.445H126.38ZM126.38 60.3865C127.241 60.3865 127.989 60.4878 128.622 60.6905C129.262 60.8868 129.791 61.1687 130.209 61.536C130.627 61.9033 130.937 62.3467 131.14 62.866C131.349 63.3853 131.453 63.9648 131.453 64.6045C131.453 65.2378 131.342 65.8173 131.121 66.343C130.899 66.8687 130.573 67.3215 130.142 67.7015C129.718 68.0815 129.189 68.3792 128.556 68.5945C127.929 68.8035 127.203 68.908 126.38 68.908H124.195V74H122.362V60.3865H126.38ZM141.194 64.3765V74H140.187C139.947 74 139.795 73.8828 139.731 73.6485L139.598 72.613C139.18 73.0753 138.712 73.449 138.192 73.734C137.673 74.0127 137.078 74.152 136.406 74.152C135.881 74.152 135.415 74.0665 135.01 73.8955C134.611 73.7182 134.275 73.4712 134.003 73.1545C133.731 72.8378 133.525 72.4547 133.385 72.005C133.252 71.5553 133.186 71.0582 133.186 70.5135V64.3765H134.877V70.5135C134.877 71.2418 135.042 71.8055 135.371 72.2045C135.707 72.6035 136.216 72.803 136.9 72.803C137.401 72.803 137.866 72.6858 138.297 72.4515C138.734 72.2108 139.136 71.8815 139.503 71.4635V64.3765H141.194ZM145.481 66.305C145.785 65.6463 146.159 65.1333 146.602 64.766C147.045 64.3923 147.587 64.2055 148.227 64.2055C148.429 64.2055 148.622 64.2277 148.806 64.272C148.996 64.3163 149.164 64.386 149.31 64.481L149.186 65.7445C149.148 65.9028 149.053 65.982 148.901 65.982C148.812 65.982 148.683 65.963 148.512 65.925C148.341 65.887 148.147 65.868 147.932 65.868C147.628 65.868 147.356 65.9123 147.115 66.001C146.881 66.0897 146.669 66.2227 146.479 66.4C146.295 66.571 146.127 66.7863 145.975 67.046C145.829 67.2993 145.696 67.5907 145.576 67.92V74H143.876V64.3765H144.845C145.028 64.3765 145.155 64.4113 145.225 64.481C145.294 64.5507 145.342 64.671 145.367 64.842L145.481 66.305ZM157.104 66.0865C157.054 66.1562 157.003 66.21 156.952 66.248C156.902 66.286 156.832 66.305 156.743 66.305C156.648 66.305 156.544 66.267 156.43 66.191C156.316 66.1087 156.173 66.02 156.002 65.925C155.838 65.83 155.632 65.7445 155.385 65.6685C155.144 65.5862 154.847 65.545 154.492 65.545C154.017 65.545 153.599 65.6305 153.238 65.8015C152.877 65.9662 152.573 66.2068 152.326 66.5235C152.085 66.8402 151.902 67.2233 151.775 67.673C151.655 68.1227 151.594 68.6262 151.594 69.1835C151.594 69.7662 151.661 70.2855 151.794 70.7415C151.927 71.1912 152.114 71.5712 152.354 71.8815C152.601 72.1855 152.896 72.4198 153.238 72.5845C153.586 72.7428 153.976 72.822 154.406 72.822C154.818 72.822 155.157 72.7745 155.423 72.6795C155.689 72.5782 155.907 72.4673 156.078 72.347C156.256 72.2267 156.401 72.119 156.515 72.024C156.636 71.9227 156.753 71.872 156.867 71.872C157.006 71.872 157.114 71.9258 157.19 72.0335L157.665 72.651C157.456 72.9107 157.218 73.1323 156.952 73.316C156.686 73.4997 156.398 73.6548 156.088 73.7815C155.784 73.9018 155.464 73.9905 155.128 74.0475C154.793 74.1045 154.451 74.133 154.102 74.133C153.501 74.133 152.94 74.0222 152.421 73.8005C151.908 73.5788 151.461 73.259 151.081 72.841C150.701 72.4167 150.404 71.8973 150.188 71.283C149.973 70.6687 149.865 69.9688 149.865 69.1835C149.865 68.4678 149.964 67.806 150.16 67.198C150.363 66.59 150.654 66.0675 151.034 65.6305C151.42 65.1872 151.892 64.842 152.449 64.595C153.013 64.348 153.659 64.2245 154.387 64.2245C155.065 64.2245 155.66 64.3353 156.173 64.557C156.693 64.7723 157.152 65.0795 157.551 65.4785L157.104 66.0865ZM161.181 65.659C161.592 65.222 162.048 64.8737 162.549 64.614C163.049 64.3543 163.625 64.2245 164.278 64.2245C164.803 64.2245 165.266 64.3132 165.665 64.4905C166.07 64.6615 166.406 64.9085 166.672 65.2315C166.944 65.5482 167.15 65.9313 167.289 66.381C167.428 66.8307 167.498 67.3278 167.498 67.8725V74H165.798V67.8725C165.798 67.1442 165.63 66.5805 165.294 66.1815C164.965 65.7762 164.461 65.5735 163.784 65.5735C163.283 65.5735 162.815 65.6938 162.378 65.9345C161.947 66.1752 161.548 66.5013 161.181 66.913V74H159.48V60.0065H161.181V65.659ZM175.29 69.668C174.511 69.6933 173.846 69.7567 173.295 69.858C172.751 69.953 172.304 70.0797 171.956 70.238C171.614 70.3963 171.364 70.5832 171.205 70.7985C171.053 71.0138 170.977 71.2545 170.977 71.5205C170.977 71.7738 171.019 71.9923 171.101 72.176C171.183 72.3597 171.294 72.5117 171.433 72.632C171.579 72.746 171.747 72.8315 171.937 72.8885C172.133 72.9392 172.342 72.9645 172.564 72.9645C172.862 72.9645 173.134 72.936 173.381 72.879C173.628 72.8157 173.859 72.727 174.074 72.613C174.296 72.499 174.505 72.3628 174.701 72.2045C174.904 72.0462 175.1 71.8657 175.29 71.663V69.668ZM169.828 65.735C170.36 65.222 170.933 64.8388 171.547 64.5855C172.162 64.3322 172.843 64.2055 173.59 64.2055C174.128 64.2055 174.606 64.2942 175.024 64.4715C175.442 64.6488 175.794 64.8958 176.079 65.2125C176.364 65.5292 176.579 65.9123 176.725 66.362C176.871 66.8117 176.943 67.3057 176.943 67.844V74H176.193C176.028 74 175.902 73.9747 175.813 73.924C175.724 73.867 175.655 73.7593 175.604 73.601L175.414 72.689C175.161 72.9233 174.914 73.1323 174.673 73.316C174.432 73.4933 174.179 73.6453 173.913 73.772C173.647 73.8923 173.362 73.9842 173.058 74.0475C172.76 74.1172 172.428 74.152 172.06 74.152C171.687 74.152 171.335 74.1013 171.006 74C170.677 73.8923 170.388 73.734 170.141 73.525C169.901 73.316 169.708 73.0532 169.562 72.7365C169.423 72.4135 169.353 72.0335 169.353 71.5965C169.353 71.2165 169.457 70.8523 169.666 70.504C169.875 70.1493 170.214 69.8358 170.683 69.5635C171.152 69.2912 171.763 69.0695 172.516 68.8985C173.27 68.7212 174.195 68.6198 175.29 68.5945V67.844C175.29 67.0967 175.129 66.533 174.806 66.153C174.483 65.7667 174.011 65.5735 173.39 65.5735C172.972 65.5735 172.621 65.6273 172.336 65.735C172.057 65.8363 171.813 65.9535 171.604 66.0865C171.402 66.2132 171.224 66.3303 171.072 66.438C170.927 66.5393 170.781 66.59 170.635 66.59C170.521 66.59 170.423 66.5615 170.341 66.5045C170.259 66.4412 170.189 66.3652 170.132 66.2765L169.828 65.735ZM185.124 65.963C185.048 66.1023 184.931 66.172 184.773 66.172C184.678 66.172 184.57 66.1372 184.45 66.0675C184.329 65.9978 184.181 65.9218 184.003 65.8395C183.832 65.7508 183.626 65.6717 183.386 65.602C183.145 65.526 182.86 65.488 182.531 65.488C182.246 65.488 181.989 65.526 181.761 65.602C181.533 65.6717 181.337 65.7698 181.172 65.8965C181.014 66.0232 180.89 66.172 180.802 66.343C180.719 66.5077 180.678 66.6882 180.678 66.8845C180.678 67.1315 180.748 67.3373 180.887 67.502C181.033 67.6667 181.223 67.8092 181.457 67.9295C181.692 68.0498 181.958 68.1575 182.255 68.2525C182.553 68.3412 182.857 68.4393 183.167 68.547C183.484 68.6483 183.791 68.7623 184.089 68.889C184.386 69.0157 184.652 69.174 184.887 69.364C185.121 69.554 185.308 69.7883 185.447 70.067C185.593 70.3393 185.666 70.6687 185.666 71.055C185.666 71.4983 185.587 71.91 185.428 72.29C185.27 72.6637 185.036 72.9898 184.725 73.2685C184.415 73.5408 184.035 73.7562 183.585 73.9145C183.136 74.0728 182.616 74.152 182.027 74.152C181.356 74.152 180.748 74.0443 180.203 73.829C179.659 73.6073 179.196 73.3255 178.816 72.9835L179.215 72.3375C179.266 72.2552 179.326 72.1918 179.396 72.1475C179.465 72.1032 179.554 72.081 179.662 72.081C179.776 72.081 179.896 72.1253 180.023 72.214C180.149 72.3027 180.301 72.4008 180.479 72.5085C180.662 72.6162 180.884 72.7143 181.144 72.803C181.403 72.8917 181.726 72.936 182.113 72.936C182.442 72.936 182.73 72.8948 182.977 72.8125C183.224 72.7238 183.43 72.6067 183.595 72.461C183.759 72.3153 183.88 72.1475 183.956 71.9575C184.038 71.7675 184.079 71.5648 184.079 71.3495C184.079 71.0835 184.006 70.865 183.861 70.694C183.721 70.5167 183.535 70.3678 183.3 70.2475C183.066 70.1208 182.797 70.0132 182.493 69.9245C182.195 69.8295 181.888 69.7313 181.571 69.63C181.261 69.5287 180.954 69.4147 180.65 69.288C180.352 69.155 180.086 68.9903 179.852 68.794C179.617 68.5977 179.427 68.357 179.282 68.072C179.142 67.7807 179.073 67.4292 179.073 67.0175C179.073 66.6502 179.149 66.2987 179.301 65.963C179.453 65.621 179.674 65.3233 179.966 65.07C180.257 64.8103 180.615 64.6045 181.039 64.4525C181.464 64.3005 181.948 64.2245 182.493 64.2245C183.126 64.2245 183.693 64.3258 184.193 64.5285C184.7 64.7248 185.137 64.9972 185.504 65.3455L185.124 65.963ZM194.18 68.1385C194.18 67.7458 194.123 67.388 194.009 67.065C193.901 66.7357 193.74 66.4538 193.524 66.2195C193.315 65.9788 193.059 65.7952 192.755 65.6685C192.451 65.5355 192.106 65.469 191.719 65.469C190.909 65.469 190.266 65.7065 189.791 66.1815C189.322 66.6502 189.031 67.3025 188.917 68.1385H194.18ZM195.548 72.651C195.339 72.9043 195.089 73.126 194.797 73.316C194.506 73.4997 194.193 73.6517 193.857 73.772C193.528 73.8923 193.186 73.981 192.831 74.038C192.476 74.1013 192.125 74.133 191.776 74.133C191.111 74.133 190.497 74.0222 189.933 73.8005C189.376 73.5725 188.892 73.2432 188.48 72.8125C188.075 72.3755 187.758 71.8372 187.53 71.1975C187.302 70.5578 187.188 69.8232 187.188 68.9935C187.188 68.3222 187.289 67.6952 187.492 67.1125C187.701 66.5298 187.999 66.0263 188.385 65.602C188.771 65.1713 189.243 64.8357 189.8 64.595C190.358 64.348 190.985 64.2245 191.681 64.2245C192.258 64.2245 192.79 64.3227 193.277 64.519C193.771 64.709 194.196 64.9877 194.55 65.355C194.911 65.716 195.193 66.1657 195.396 66.704C195.599 67.236 195.7 67.844 195.7 68.528C195.7 68.794 195.671 68.9713 195.614 69.06C195.557 69.1487 195.45 69.193 195.291 69.193H188.86C188.879 69.801 188.961 70.3298 189.107 70.7795C189.259 71.2292 189.468 71.606 189.734 71.91C190 72.2077 190.317 72.4325 190.684 72.5845C191.051 72.7302 191.463 72.803 191.919 72.803C192.343 72.803 192.707 72.7555 193.011 72.6605C193.322 72.5592 193.588 72.4515 193.809 72.3375C194.031 72.2235 194.215 72.119 194.36 72.024C194.512 71.9227 194.642 71.872 194.75 71.872C194.889 71.872 194.997 71.9258 195.073 72.0335L195.548 72.651Z" fill="white"/>
<path d="M117.27 90.3865V91.1465C117.27 91.3618 117.244 91.5392 117.194 91.6785C117.149 91.8178 117.105 91.935 117.061 92.03L111.418 103.401C111.335 103.566 111.221 103.709 111.076 103.829C110.93 103.943 110.737 104 110.496 104H109.28L114.999 92.771C115.081 92.6127 115.167 92.467 115.256 92.334C115.344 92.201 115.439 92.0743 115.541 91.954H108.435C108.327 91.954 108.232 91.9128 108.15 91.8305C108.067 91.7418 108.026 91.6437 108.026 91.536V90.3865H117.27Z" fill="white"/>
</g>
<defs>
<filter id="filter0_d_1166_12882" x="0" y="0" width="226" height="122" filterUnits="userSpaceOnUse" color-interpolation-filters="sRGB">
<feFlood flood-opacity="0" result="BackgroundImageFix"/>
<feColorMatrix in="SourceAlpha" type="matrix" values="0 0 0 0 0 0 0 0 0 0 0 0 0 0 0 0 0 0 127 0" result="hardAlpha"/>
<feOffset dy="4"/>
<feGaussianBlur stdDeviation="2"/>
<feComposite in2="hardAlpha" operator="out"/>
<feColorMatrix type="matrix" values="0 0 0 0 1 0 0 0 0 1 0 0 0 0 1 0 0 0 0.52 0"/>
<feBlend mode="normal" in2="BackgroundImageFix" result="effect1_dropShadow_1166_12882"/>
<feBlend mode="normal" in="SourceGraphic" in2="effect1_dropShadow_1166_12882" result="shape"/>
</filter>
</defs>
</svg>
