<svg width="120" height="23" viewBox="0 0 120 23" fill="none" xmlns="http://www.w3.org/2000/svg">
<path d="M15.5833 17.7374L10.9581 15.4243L6.18437 17.4129L6.95499 12.2993L3.58855 8.37367L8.69004 7.52637L11.3832 3.11162L13.7655 7.7016L18.7964 8.89872L15.1672 12.5828L15.5833 17.7374Z" fill="#2B3991"/>
<path d="M39.7962 17.7374L35.171 15.4243L30.3973 17.4129L31.1679 12.2993L27.8014 8.37367L32.9029 7.52637L35.5961 3.11162L37.9784 7.7016L43.0093 8.89872L39.3801 12.5828L39.7962 17.7374Z" fill="#2B3991"/>
<path d="M64.0101 17.7374L59.3849 15.4243L54.6111 17.4129L55.3818 12.2993L52.0153 8.37367L57.1168 7.52637L59.81 3.11162L62.1922 7.7016L67.2232 8.89872L63.594 12.5828L64.0101 17.7374Z" fill="#2B3991"/>
<path d="M88.223 17.7374L83.5978 15.4243L78.824 17.4129L79.5946 12.2993L76.2282 8.37367L81.3297 7.52637L84.0229 3.11162L86.4051 7.7016L91.436 8.89872L87.8069 12.5828L88.223 17.7374Z" fill="#2B3991"/>
<path d="M112.437 17.7374L107.812 15.4243L103.038 17.4129L103.809 12.2993L100.442 8.37367L105.544 7.52637L108.237 3.11162L110.619 7.7016L115.65 8.89872L112.021 12.5828L112.437 17.7374Z" fill="#2B3991"/>
</svg>
