<svg width="27" height="24" viewBox="0 0 27 24" fill="none" xmlns="http://www.w3.org/2000/svg">
<path d="M26.25 0.670916C26.25 0.670916 23.888 2.17785 22.5748 2.60515C21.8699 1.7297 20.933 1.10921 19.891 0.827584C18.8489 0.545962 17.7519 0.616802 16.7483 1.03052C15.7448 1.44424 14.8831 2.18089 14.2797 3.14082C13.6764 4.10075 13.3606 5.23766 13.375 6.39777V7.66198C11.3181 7.71959 9.2799 7.22686 7.44198 6.22767C5.60405 5.22848 4.02344 3.75386 2.84091 1.93512C2.84091 1.93512 -1.84091 13.313 8.69318 18.3698C6.28266 20.1371 3.4111 21.0233 0.5 20.8982C11.0341 27.2193 23.9091 20.8982 23.9091 6.35985C23.9091 6.0084 23.8763 5.65695 23.8155 5.31055C25.0093 4.03876 26.25 0.670916 26.25 0.670916Z" fill="#FBCA8E"/>
</svg>
