<svg width="99" height="99" viewBox="0 0 99 99" fill="none" xmlns="http://www.w3.org/2000/svg">
<g filter="url(#filter0_d_1308_19026)">
<circle cx="49.5" cy="45.5" r="45.5" fill="#FAFAFA"/>
<circle cx="49.5" cy="45.5" r="45.045" stroke="#E4E2E2" stroke-width="0.91"/>
</g>
<path d="M47.385 37.8873C46.4625 37.8873 45.6975 37.1223 45.6975 36.1998V26.7723L44.0775 28.3923C43.425 29.0448 42.345 29.0448 41.6925 28.3923C41.04 27.7398 41.04 26.6598 41.6925 26.0073L46.1925 21.5073C46.665 21.0348 47.4075 20.8773 48.0375 21.1473C48.6675 21.3948 49.0725 22.0248 49.0725 22.6998V36.1998C49.0725 37.1223 48.3075 37.8873 47.385 37.8873Z" fill="#7C4A0F"/>
<path d="M51.885 28.8874C51.4575 28.8874 51.03 28.7299 50.6925 28.3924L46.1925 23.8924C45.54 23.2399 45.54 22.1599 46.1925 21.5074C46.845 20.8549 47.925 20.8549 48.5775 21.5074L53.0775 26.0074C53.73 26.6599 53.73 27.7399 53.0775 28.3924C52.74 28.7299 52.3125 28.8874 51.885 28.8874Z" fill="#7C4A0F"/>
<path d="M56.3828 69.3872H38.3828C25.4453 69.3872 25.4453 62.5247 25.4453 56.4497V54.1997C25.4453 49.1822 25.4453 43.5122 36.1328 43.5122C38.8103 43.5122 39.8003 44.1647 41.1953 45.1997C41.2628 45.2672 41.3528 45.3122 41.4203 45.4022L43.7153 47.8322C45.6503 49.8797 49.1603 49.8797 51.0953 47.8322L53.3903 45.4022C53.4578 45.3347 53.5253 45.2672 53.6153 45.1997C55.0103 44.1422 56.0003 43.5122 58.6778 43.5122C69.3653 43.5122 69.3653 49.1822 69.3653 54.1997V56.4497C69.3203 65.0447 64.9778 69.3872 56.3828 69.3872ZM36.1328 46.8872C28.8203 46.8872 28.8203 49.1822 28.8203 54.1997V56.4497C28.8203 62.6147 28.8203 66.0122 38.3828 66.0122H56.3828C63.0878 66.0122 65.9453 63.1547 65.9453 56.4497V54.1997C65.9453 49.1822 65.9453 46.8872 58.6328 46.8872C57.0128 46.8872 56.6753 47.0897 55.7078 47.8097L53.5253 50.1272C51.9053 51.8372 49.7228 52.7822 47.3828 52.7822C45.0428 52.7822 42.8603 51.8372 41.2403 50.1272L39.0578 47.8097C38.0903 47.0897 37.7528 46.8872 36.1328 46.8872Z" fill="#7C4A0F"/>
<path d="M31.6328 46.8872C30.7103 46.8872 29.9453 46.1222 29.9453 45.1997V40.6997C29.9453 36.3347 29.9453 30.9122 38.2253 30.1247C39.1253 30.0122 39.9803 30.7097 40.0703 31.6547C40.1603 32.5772 39.4853 33.4097 38.5403 33.4997C33.3203 33.9722 33.3203 36.0872 33.3203 40.6997V45.1997C33.3203 46.1222 32.5553 46.8872 31.6328 46.8872Z" fill="#7C4A0F"/>
<path d="M63.1301 46.8872C62.2076 46.8872 61.4426 46.1222 61.4426 45.1997V40.6997C61.4426 36.0872 61.4426 33.9722 56.2226 33.4772C55.3001 33.3872 54.6251 32.5547 54.7151 31.6322C54.8051 30.7097 55.6151 30.0122 56.5601 30.1247C64.8401 30.9122 64.8401 36.3347 64.8401 40.6997V45.1997C64.8176 46.1222 64.0526 46.8872 63.1301 46.8872Z" fill="#7C4A0F"/>
<defs>
<filter id="filter0_d_1308_19026" x="0.36" y="0" width="98.28" height="98.28" filterUnits="userSpaceOnUse" color-interpolation-filters="sRGB">
<feFlood flood-opacity="0" result="BackgroundImageFix"/>
<feColorMatrix in="SourceAlpha" type="matrix" values="0 0 0 0 0 0 0 0 0 0 0 0 0 0 0 0 0 0 127 0" result="hardAlpha"/>
<feOffset dy="3.64"/>
<feGaussianBlur stdDeviation="1.82"/>
<feComposite in2="hardAlpha" operator="out"/>
<feColorMatrix type="matrix" values="0 0 0 0 0 0 0 0 0 0 0 0 0 0 0 0 0 0 0.25 0"/>
<feBlend mode="normal" in2="BackgroundImageFix" result="effect1_dropShadow_1308_19026"/>
<feBlend mode="normal" in="SourceGraphic" in2="effect1_dropShadow_1308_19026" result="shape"/>
</filter>
</defs>
</svg>
