<svg width="42" height="42" viewBox="0 0 42 42" fill="none" xmlns="http://www.w3.org/2000/svg">
<path d="M35.826 6.12267C31.7427 2.06033 26.754 0 21 0C15.1923 0 10.1897 2.06267 6.12967 6.125C2.06267 10.1873 0 15.1947 0 21C0 26.7517 2.06033 31.7403 6.12267 35.826C10.185 39.9233 15.19 42 21 42C26.7563 42 31.745 39.9233 35.8307 35.833C39.9257 31.7427 42 26.7517 42 21C42 15.1947 39.9233 10.1873 35.826 6.12267ZM32.5313 32.5337C29.8783 35.1913 26.8473 36.7057 23.3333 37.1653V25.6667H28V21H23.3333V17.7333C23.3333 17.5493 23.3696 17.367 23.4401 17.197C23.5106 17.027 23.614 16.8726 23.7442 16.7426C23.8745 16.6125 24.0291 16.5095 24.1992 16.4392C24.3693 16.369 24.5516 16.333 24.7357 16.3333H28V11.6667H24.7403C23.009 11.6667 21.5647 12.3037 20.4073 13.5847C19.25 14.861 18.6667 16.4197 18.6667 18.27V21H14V25.6667H18.6667V37.17C15.1153 36.715 12.0727 35.1983 9.43367 32.5407C6.22533 29.3113 4.66667 25.536 4.66667 21C4.66667 16.4127 6.223 12.628 9.43133 9.42667C12.628 6.223 16.4127 4.66667 21 4.66667C25.5383 4.66667 29.3113 6.22533 32.5383 9.43367C35.7653 12.635 37.3333 16.4197 37.3333 21C37.3333 25.529 35.763 29.3043 32.5313 32.5337Z" fill="#706F6F"/>
</svg>
