<svg width="42" height="37" viewBox="0 0 42 37" fill="none" xmlns="http://www.w3.org/2000/svg">
<path d="M42 0.0207349C42 0.0207349 38.1475 2.47865 36.0055 3.17561C34.8557 1.74769 33.3276 0.735616 31.628 0.276272C29.9283 -0.183073 28.139 -0.067528 26.5022 0.60728C24.8653 1.28209 23.4598 2.4836 22.4757 4.04931C21.4916 5.61503 20.9765 7.4694 21 9.36163V11.4236C17.645 11.5176 14.3206 10.7139 11.3228 9.08418C8.32506 7.45443 5.74697 5.04922 3.81818 2.08274C3.81818 2.08274 -3.81818 20.6408 13.3636 28.8888C9.43192 31.7715 4.74821 33.2168 0 33.0128C17.1818 43.3229 38.1818 33.0129 38.1818 9.29977C38.1818 8.72653 38.1284 8.15329 38.0291 7.5883C39.9764 5.51392 42 0.0207349 42 0.0207349Z" fill="#706F6F"/>
</svg>
