<svg width="30" height="30" viewBox="0 0 30 30" fill="none" xmlns="http://www.w3.org/2000/svg">
<path d="M11.9633 23.5249C11.7258 23.5249 11.4883 23.4374 11.3008 23.2499L3.71328 15.6624C3.35078 15.2999 3.35078 14.6999 3.71328 14.3374L11.3008 6.7499C11.6633 6.3874 12.2633 6.3874 12.6258 6.7499C12.9883 7.1124 12.9883 7.7124 12.6258 8.0749L5.70078 14.9999L12.6258 21.9249C12.9883 22.2874 12.9883 22.8874 12.6258 23.2499C12.4508 23.4374 12.2008 23.5249 11.9633 23.5249Z" fill="#292D32"/>
<path d="M25.6254 15.9375H4.58789C4.07539 15.9375 3.65039 15.5125 3.65039 15C3.65039 14.4875 4.07539 14.0625 4.58789 14.0625H25.6254C26.1379 14.0625 26.5629 14.4875 26.5629 15C26.5629 15.5125 26.1379 15.9375 25.6254 15.9375Z" fill="#292D32"/>
</svg>
