<svg width="31" height="30" viewBox="0 0 31 30" fill="none" xmlns="http://www.w3.org/2000/svg">
<path d="M28.249 11.5615H3.24902C2.73652 11.5615 2.31152 11.1365 2.31152 10.624C2.31152 10.1115 2.73652 9.68652 3.24902 9.68652H28.249C28.7615 9.68652 29.1865 10.1115 29.1865 10.624C29.1865 11.1365 28.7615 11.5615 28.249 11.5615Z" fill="#D4D4D4"/>
<path d="M10.749 21.5635H8.24902C7.73652 21.5635 7.31152 21.1385 7.31152 20.626C7.31152 20.1135 7.73652 19.6885 8.24902 19.6885H10.749C11.2615 19.6885 11.6865 20.1135 11.6865 20.626C11.6865 21.1385 11.2615 21.5635 10.749 21.5635Z" fill="#D4D4D4"/>
<path d="M18.874 21.5635H13.874C13.3615 21.5635 12.9365 21.1385 12.9365 20.626C12.9365 20.1135 13.3615 19.6885 13.874 19.6885H18.874C19.3865 19.6885 19.8115 20.1135 19.8115 20.626C19.8115 21.1385 19.3865 21.5635 18.874 21.5635Z" fill="#D4D4D4"/>
<path d="M22.699 26.5625H8.79902C3.82402 26.5625 2.31152 25.0625 2.31152 20.1375V9.8625C2.31152 4.9375 3.82402 3.4375 8.79902 3.4375H22.6865C27.6615 3.4375 29.174 4.9375 29.174 9.8625V20.125C29.1865 25.0625 27.674 26.5625 22.699 26.5625ZM8.79902 5.3125C4.87402 5.3125 4.18652 5.9875 4.18652 9.8625V20.125C4.18652 24 4.87402 24.675 8.79902 24.675H22.6865C26.6115 24.675 27.299 24 27.299 20.125V9.8625C27.299 5.9875 26.6115 5.3125 22.6865 5.3125H8.79902Z" fill="#D4D4D4"/>
</svg>
