<svg width="56" height="55" viewBox="0 0 56 55" fill="none" xmlns="http://www.w3.org/2000/svg">
<path d="M39.457 48.6981H16.5404C8.17578 48.6981 3.36328 43.8856 3.36328 35.521V19.4793C3.36328 11.1147 8.17578 6.30225 16.5404 6.30225H39.457C47.8216 6.30225 52.6341 11.1147 52.6341 19.4793V35.521C52.6341 43.8856 47.8216 48.6981 39.457 48.6981ZM16.5404 9.73975C9.9862 9.73975 6.80078 12.9252 6.80078 19.4793V35.521C6.80078 42.0752 9.9862 45.2606 16.5404 45.2606H39.457C46.0112 45.2606 49.1966 42.0752 49.1966 35.521V19.4793C49.1966 12.9252 46.0112 9.73975 39.457 9.73975H16.5404Z" fill="#2B3991"/>
<path d="M27.9958 29.4939C26.0708 29.4939 24.1229 28.8981 22.6333 27.6835L15.4604 21.9543C14.727 21.3585 14.5895 20.2814 15.1854 19.5481C15.7812 18.8148 16.8583 18.6773 17.5916 19.2731L24.7645 25.0023C26.5062 26.4002 29.4624 26.4002 31.2041 25.0023L38.377 19.2731C39.1104 18.6773 40.2104 18.7918 40.7833 19.5481C41.3791 20.2814 41.2646 21.3814 40.5083 21.9543L33.3354 27.6835C31.8687 28.8981 29.9208 29.4939 27.9958 29.4939Z" fill="#2B3991"/>
</svg>
