<svg width="26" height="26" viewBox="0 0 26 26" fill="none" xmlns="http://www.w3.org/2000/svg">
<path d="M13.1266 24.5345C6.76423 24.5345 1.59277 19.363 1.59277 13.0007C1.59277 6.63826 6.76423 1.4668 13.1266 1.4668C19.489 1.4668 24.6605 6.63826 24.6605 13.0007C24.6605 19.363 19.489 24.5345 13.1266 24.5345ZM13.1266 3.07617C7.65475 3.07617 3.20215 7.52878 3.20215 13.0007C3.20215 18.4725 7.65475 22.9251 13.1266 22.9251C18.5985 22.9251 23.0511 18.4725 23.0511 13.0007C23.0511 7.52878 18.5985 3.07617 13.1266 3.07617Z" fill="#FBCA8E"/>
<path d="M8.882 10.021V18.125H7.458V10.021H8.882ZM9.186 7.477C9.186 7.61567 9.15667 7.74633 9.098 7.869C9.04467 7.98633 8.97 8.093 8.874 8.189C8.78333 8.27967 8.674 8.35167 8.546 8.405C8.42333 8.45833 8.29267 8.485 8.154 8.485C8.01533 8.485 7.88467 8.45833 7.762 8.405C7.64467 8.35167 7.54067 8.27967 7.45 8.189C7.35933 8.093 7.28733 7.98633 7.234 7.869C7.18067 7.74633 7.154 7.61567 7.154 7.477C7.154 7.33833 7.18067 7.20767 7.234 7.085C7.28733 6.957 7.35933 6.84767 7.45 6.757C7.54067 6.661 7.64467 6.58633 7.762 6.533C7.88467 6.47967 8.01533 6.453 8.154 6.453C8.29267 6.453 8.42333 6.47967 8.546 6.533C8.674 6.58633 8.78333 6.661 8.874 6.757C8.97 6.84767 9.04467 6.957 9.098 7.085C9.15667 7.20767 9.186 7.33833 9.186 7.477ZM12.5658 11.197C12.7418 10.9997 12.9284 10.821 13.1258 10.661C13.3231 10.501 13.5311 10.365 13.7498 10.253C13.9738 10.1357 14.2084 10.0477 14.4538 9.989C14.7044 9.925 14.9738 9.893 15.2618 9.893C15.7044 9.893 16.0938 9.96767 16.4298 10.117C16.7711 10.261 17.0538 10.469 17.2778 10.741C17.5071 11.0077 17.6804 11.3303 17.7978 11.709C17.9151 12.0877 17.9738 12.5063 17.9738 12.965V18.125H16.5418V12.965C16.5418 12.3517 16.4004 11.877 16.1178 11.541C15.8404 11.1997 15.4164 11.029 14.8458 11.029C14.4244 11.029 14.0298 11.1303 13.6618 11.333C13.2991 11.5357 12.9631 11.8103 12.6538 12.157V18.125H11.2218V10.021H12.0778C12.2804 10.021 12.4058 10.1197 12.4538 10.317L12.5658 11.197Z" fill="#FBCA8E"/>
</svg>
