<svg width="46" height="45" viewBox="0 0 46 45" fill="none" xmlns="http://www.w3.org/2000/svg">
<path d="M23.0022 26.1964C19.0644 26.1964 15.8477 22.9981 15.8477 19.0418C15.8477 15.0856 19.0644 11.9058 23.0022 11.9058C26.94 11.9058 30.1568 15.1041 30.1568 19.0603C30.1568 23.0166 26.94 26.1964 23.0022 26.1964ZM23.0022 14.6788C20.5989 14.6788 18.6207 16.6385 18.6207 19.0603C18.6207 21.4821 20.5804 23.4418 23.0022 23.4418C25.424 23.4418 27.3837 21.4821 27.3837 19.0603C27.3837 16.6385 25.4056 14.6788 23.0022 14.6788Z" fill="#243079"/>
<path d="M23.0028 42.0771C20.2667 42.0771 17.5121 41.0418 15.3676 38.9897C9.91382 33.7393 3.88698 25.3646 6.16091 15.4C8.213 6.35974 16.107 2.31104 23.0028 2.31104C23.0028 2.31104 23.0028 2.31104 23.0213 2.31104C29.917 2.31104 37.8111 6.35974 39.8631 15.4185C42.1186 25.3831 36.0917 33.7393 30.638 38.9897C28.4935 41.0418 25.7389 42.0771 23.0028 42.0771ZM23.0028 5.08412C17.623 5.08412 10.7088 7.94964 8.87854 16.0101C6.88192 24.7176 12.3541 32.2234 17.3087 36.9746C20.507 40.062 25.517 40.062 28.7153 36.9746C33.6514 32.2234 39.1236 24.7176 37.164 16.0101C35.3153 7.94964 28.3826 5.08412 23.0028 5.08412Z" fill="#243079"/>
</svg>
