<svg width="31" height="30" viewBox="0 0 31 30" fill="none" xmlns="http://www.w3.org/2000/svg">
<path d="M19.5938 2.8125C21.1188 2.8125 21.8813 3.31875 21.8813 4.3375V25.6625C21.8813 26.675 21.375 27.1875 20.3563 27.1875H10.8375C9.81875 27.1875 9.3125 26.6813 9.3125 25.6625V4.3375C9.3125 3.31875 10.075 2.8125 11.6 2.8125H19.6H19.5938Z" stroke="#D4D4D4" stroke-linecap="round" stroke-linejoin="round"/>
<path d="M11.9129 2.85C11.9504 3.74375 12.4816 4.19375 13.4941 4.19375H18.0629C18.9691 4.1625 19.4441 3.70625 19.4816 2.8125M12.4316 10.7938C12.9441 10.7938 13.3691 11.2188 13.3691 11.7313C13.3691 12.2438 12.9441 12.6688 12.4316 12.6688C11.9191 12.6688 11.4941 12.2438 11.4941 11.7313C11.4941 11.2188 11.9191 10.7938 12.4316 10.7938ZM15.6316 10.7938C16.1441 10.7938 16.5691 11.2188 16.5691 11.7313C16.5691 12.2438 16.1441 12.6688 15.6316 12.6688C15.1191 12.6688 14.6941 12.2438 14.6941 11.7313C14.6941 11.2188 15.1191 10.7938 15.6316 10.7938ZM18.8316 10.7938C19.3441 10.7938 19.7691 11.2188 19.7691 11.7375C19.7691 12.2563 19.3441 12.6688 18.8316 12.6688C18.3191 12.6688 17.8941 12.25 17.8941 11.7375C17.8941 11.225 18.3191 10.7938 18.8316 10.7938ZM12.4316 14.0625C12.9441 14.0625 13.3691 14.4875 13.3691 15C13.3691 15.5125 12.9441 15.9375 12.4316 15.9375C11.9191 15.9375 11.4941 15.5125 11.4941 15C11.4941 14.4875 11.9191 14.0625 12.4316 14.0625ZM15.6316 14.0625C16.1441 14.0625 16.5691 14.4875 16.5691 15C16.5691 15.5125 16.1441 15.9375 15.6316 15.9375C15.1191 15.9375 14.6941 15.5125 14.6941 15C14.6941 14.4875 15.1191 14.0625 15.6316 14.0625ZM18.8316 14.0625C19.3441 14.0625 19.7691 14.4875 19.7691 15.0063C19.7691 15.525 19.3441 15.9375 18.8316 15.9375C18.3191 15.9375 17.8941 15.5188 17.8941 15.0063C17.8941 14.4938 18.3191 14.0625 18.8316 14.0625ZM12.4316 17.3312C12.9441 17.3312 13.3691 17.7562 13.3691 18.2687C13.3691 18.7812 12.9441 19.2062 12.4316 19.2062C11.9191 19.2062 11.4941 18.7812 11.4941 18.2687C11.4941 17.7562 11.9191 17.3312 12.4316 17.3312ZM15.6316 17.3312C16.1441 17.3312 16.5691 17.7562 16.5691 18.2687C16.5691 18.7812 16.1441 19.2062 15.6316 19.2062C15.1191 19.2062 14.6941 18.7812 14.6941 18.2687C14.6941 17.7562 15.1191 17.3312 15.6316 17.3312ZM18.8316 17.3312C19.3441 17.3312 19.7691 17.7562 19.7691 18.275C19.7691 18.7937 19.3441 19.2062 18.8316 19.2062C18.3191 19.2062 17.8941 18.7875 17.8941 18.275C17.8941 17.7625 18.3191 17.3312 18.8316 17.3312Z" stroke="#D4D4D4" stroke-linecap="round" stroke-linejoin="round"/>
</svg>
