<svg width="120" height="23" viewBox="0 0 120 23" fill="none" xmlns="http://www.w3.org/2000/svg">
<path d="M15.5833 17.7369L10.9581 15.4238L6.18437 17.4124L6.95499 12.2988L3.58855 8.37318L8.69004 7.52588L11.3832 3.11114L13.7655 7.70112L18.7964 8.89824L15.1672 12.5823L15.5833 17.7369Z" fill="#2B3991"/>
<path d="M39.7962 17.7369L35.171 15.4238L30.3973 17.4124L31.1679 12.2988L27.8014 8.37318L32.9029 7.52588L35.5961 3.11114L37.9784 7.70112L43.0093 8.89824L39.3801 12.5823L39.7962 17.7369Z" fill="#BAA7A7"/>
<path d="M64.0101 17.7369L59.3849 15.4238L54.6111 17.4124L55.3818 12.2988L52.0153 8.37318L57.1168 7.52588L59.81 3.11114L62.1922 7.70112L67.2232 8.89824L63.594 12.5823L64.0101 17.7369Z" fill="#BAA7A7"/>
<path d="M88.223 17.7369L83.5978 15.4238L78.824 17.4124L79.5946 12.2988L76.2282 8.37318L81.3297 7.52588L84.0229 3.11114L86.4051 7.70112L91.436 8.89824L87.8069 12.5823L88.223 17.7369Z" fill="#BAA7A7"/>
<path d="M112.437 17.7369L107.812 15.4238L103.038 17.4124L103.809 12.2988L100.442 8.37318L105.544 7.52588L108.237 3.11114L110.619 7.70112L115.65 8.89824L112.021 12.5823L112.437 17.7369Z" fill="#BAA7A7"/>
</svg>
