<svg width="30" height="31" viewBox="0 0 30 31" fill="none" xmlns="http://www.w3.org/2000/svg">
<path d="M15 16.4375C11.0375 16.4375 7.8125 13.2125 7.8125 9.25C7.8125 5.2875 11.0375 2.0625 15 2.0625C18.9625 2.0625 22.1875 5.2875 22.1875 9.25C22.1875 13.2125 18.9625 16.4375 15 16.4375ZM15 3.9375C12.075 3.9375 9.6875 6.325 9.6875 9.25C9.6875 12.175 12.075 14.5625 15 14.5625C17.925 14.5625 20.3125 12.175 20.3125 9.25C20.3125 6.325 17.925 3.9375 15 3.9375Z" fill="white"/>
<path d="M25.7367 28.9375C25.2242 28.9375 24.7992 28.5125 24.7992 28C24.7992 23.6875 20.3992 20.1875 14.9992 20.1875C9.59921 20.1875 5.19922 23.6875 5.19922 28C5.19922 28.5125 4.77422 28.9375 4.26172 28.9375C3.74922 28.9375 3.32422 28.5125 3.32422 28C3.32422 22.6625 8.56171 18.3125 14.9992 18.3125C21.4367 18.3125 26.6742 22.6625 26.6742 28C26.6742 28.5125 26.2492 28.9375 25.7367 28.9375Z" fill="white"/>
</svg>
